G75*
%MOIN*%
%OFA0B0*%
%FSLAX25Y25*%
%IPPOS*%
%LPD*%
%AMOC8*
5,1,8,0,0,1.08239X$1,22.5*
%
%ADD10C,0.00600*%
%ADD11C,0.00300*%
%ADD12C,0.00400*%
%ADD13C,0.00500*%
D10*
X0340091Y0030790D02*
X0341159Y0029722D01*
X0345429Y0029722D01*
X0346496Y0030790D01*
X0346496Y0032925D01*
X0345429Y0033992D01*
X0341159Y0033992D01*
X0340091Y0032925D01*
X0340091Y0030790D01*
X0341159Y0036168D02*
X0345429Y0036168D01*
X0346496Y0037235D01*
X0346496Y0039370D01*
X0345429Y0040438D01*
X0341159Y0040438D02*
X0340091Y0039370D01*
X0340091Y0037235D01*
X0341159Y0036168D01*
X0340091Y0042613D02*
X0340091Y0046883D01*
X0340091Y0044748D02*
X0346496Y0044748D01*
X0346496Y0049059D02*
X0342226Y0049059D01*
X0340091Y0051194D01*
X0342226Y0053329D01*
X0346496Y0053329D01*
X0344361Y0055504D02*
X0346496Y0057639D01*
X0344361Y0059774D01*
X0340091Y0059774D01*
X0340091Y0061950D02*
X0340091Y0064085D01*
X0340091Y0063017D02*
X0346496Y0063017D01*
X0346496Y0061950D02*
X0346496Y0064085D01*
X0345429Y0066247D02*
X0346496Y0067314D01*
X0346496Y0069449D01*
X0345429Y0070517D01*
X0341159Y0070517D01*
X0340091Y0069449D01*
X0340091Y0067314D01*
X0341159Y0066247D01*
X0345429Y0066247D01*
X0351902Y0066518D02*
X0352970Y0067585D01*
X0354037Y0067585D01*
X0355105Y0066518D01*
X0355105Y0063315D01*
X0358307Y0063315D02*
X0351902Y0063315D01*
X0351902Y0066518D01*
X0355105Y0066518D02*
X0356172Y0067585D01*
X0357240Y0067585D01*
X0358307Y0066518D01*
X0358307Y0063315D01*
X0356172Y0054694D02*
X0351902Y0054694D01*
X0351902Y0050424D02*
X0356172Y0050424D01*
X0358307Y0052559D01*
X0356172Y0054694D01*
X0358307Y0048249D02*
X0358307Y0043979D01*
X0351902Y0043979D01*
X0351902Y0048249D01*
X0355105Y0046114D02*
X0355105Y0043979D01*
X0355105Y0041803D02*
X0352970Y0041803D01*
X0351902Y0040736D01*
X0351902Y0037533D01*
X0358307Y0037533D01*
X0356172Y0037533D02*
X0356172Y0040736D01*
X0355105Y0041803D01*
X0356172Y0039668D02*
X0358307Y0041803D01*
X0343294Y0049059D02*
X0343294Y0053329D01*
X0344361Y0055504D02*
X0340091Y0055504D01*
X0340091Y0079138D02*
X0346496Y0079138D01*
X0346496Y0083408D01*
X0345429Y0085583D02*
X0346496Y0086651D01*
X0346496Y0088786D01*
X0345429Y0089853D01*
X0340091Y0089853D01*
X0340091Y0094164D02*
X0340091Y0096299D01*
X0340091Y0095231D02*
X0345429Y0095231D01*
X0346496Y0094164D01*
X0346496Y0093096D01*
X0345429Y0092029D01*
X0345429Y0085583D02*
X0340091Y0085583D01*
X0342226Y0098474D02*
X0340091Y0100609D01*
X0342226Y0102744D01*
X0346496Y0102744D01*
X0346496Y0104920D02*
X0340091Y0104920D01*
X0346496Y0109190D01*
X0340091Y0109190D01*
X0343294Y0102744D02*
X0343294Y0098474D01*
X0342226Y0098474D02*
X0346496Y0098474D01*
D11*
X0115721Y0109950D02*
X0115104Y0110567D01*
X0115104Y0113036D01*
X0115721Y0113653D01*
X0116956Y0113653D01*
X0117573Y0113036D01*
X0117573Y0111802D02*
X0116338Y0111802D01*
X0117573Y0111802D02*
X0117573Y0110567D01*
X0116956Y0109950D01*
X0115721Y0109950D01*
X0118787Y0109950D02*
X0118787Y0113653D01*
X0121256Y0109950D01*
X0121256Y0113653D01*
X0122470Y0113653D02*
X0124322Y0113653D01*
X0124939Y0113036D01*
X0124939Y0110567D01*
X0124322Y0109950D01*
X0122470Y0109950D01*
X0122470Y0113653D01*
X0161104Y0085653D02*
X0161104Y0083184D01*
X0162338Y0081950D01*
X0163573Y0083184D01*
X0163573Y0085653D01*
X0164787Y0085036D02*
X0164787Y0082567D01*
X0165404Y0081950D01*
X0166639Y0081950D01*
X0167256Y0082567D01*
X0168470Y0082567D02*
X0168470Y0085036D01*
X0169087Y0085653D01*
X0170322Y0085653D01*
X0170939Y0085036D01*
X0170939Y0082567D02*
X0170322Y0081950D01*
X0169087Y0081950D01*
X0168470Y0082567D01*
X0167256Y0085036D02*
X0166639Y0085653D01*
X0165404Y0085653D01*
X0164787Y0085036D01*
X0164787Y0015653D02*
X0167256Y0011950D01*
X0167256Y0015653D01*
X0168470Y0015653D02*
X0168470Y0011950D01*
X0170322Y0011950D01*
X0170939Y0012567D01*
X0170939Y0015036D01*
X0170322Y0015653D01*
X0168470Y0015653D01*
X0164787Y0015653D02*
X0164787Y0011950D01*
X0163573Y0012567D02*
X0163573Y0013802D01*
X0162338Y0013802D01*
X0161104Y0015036D02*
X0161104Y0012567D01*
X0161721Y0011950D01*
X0162956Y0011950D01*
X0163573Y0012567D01*
X0163573Y0015036D02*
X0162956Y0015653D01*
X0161721Y0015653D01*
X0161104Y0015036D01*
X0283104Y0100567D02*
X0283721Y0099950D01*
X0284956Y0099950D01*
X0285573Y0100567D01*
X0285573Y0101802D01*
X0284338Y0101802D01*
X0283104Y0103036D02*
X0283104Y0100567D01*
X0283104Y0103036D02*
X0283721Y0103653D01*
X0284956Y0103653D01*
X0285573Y0103036D01*
X0286787Y0103653D02*
X0289256Y0099950D01*
X0289256Y0103653D01*
X0290470Y0103653D02*
X0290470Y0099950D01*
X0292322Y0099950D01*
X0292939Y0100567D01*
X0292939Y0103036D01*
X0292322Y0103653D01*
X0290470Y0103653D01*
X0286787Y0103653D02*
X0286787Y0099950D01*
X0321104Y0111184D02*
X0322338Y0109950D01*
X0323573Y0111184D01*
X0323573Y0113653D01*
X0324787Y0113036D02*
X0324787Y0110567D01*
X0325404Y0109950D01*
X0326639Y0109950D01*
X0327256Y0110567D01*
X0328470Y0110567D02*
X0329087Y0109950D01*
X0330322Y0109950D01*
X0330939Y0110567D01*
X0328470Y0110567D02*
X0328470Y0113036D01*
X0329087Y0113653D01*
X0330322Y0113653D01*
X0330939Y0113036D01*
X0327256Y0113036D02*
X0326639Y0113653D01*
X0325404Y0113653D01*
X0324787Y0113036D01*
X0321104Y0113653D02*
X0321104Y0111184D01*
X0326338Y0127950D02*
X0327573Y0129184D01*
X0327573Y0131653D01*
X0328787Y0131036D02*
X0328787Y0128567D01*
X0329404Y0127950D01*
X0330639Y0127950D01*
X0331256Y0128567D01*
X0332470Y0128567D02*
X0333087Y0127950D01*
X0334322Y0127950D01*
X0334939Y0128567D01*
X0332470Y0128567D02*
X0332470Y0131036D01*
X0333087Y0131653D01*
X0334322Y0131653D01*
X0334939Y0131036D01*
X0331256Y0131036D02*
X0330639Y0131653D01*
X0329404Y0131653D01*
X0328787Y0131036D01*
X0325104Y0131653D02*
X0325104Y0129184D01*
X0326338Y0127950D01*
X0325721Y0159950D02*
X0326956Y0159950D01*
X0327573Y0160567D01*
X0327573Y0161802D01*
X0326338Y0161802D01*
X0325104Y0163036D02*
X0325104Y0160567D01*
X0325721Y0159950D01*
X0328787Y0159950D02*
X0328787Y0163653D01*
X0331256Y0159950D01*
X0331256Y0163653D01*
X0332470Y0163653D02*
X0334322Y0163653D01*
X0334939Y0163036D01*
X0334939Y0160567D01*
X0334322Y0159950D01*
X0332470Y0159950D01*
X0332470Y0163653D01*
X0327573Y0163036D02*
X0326956Y0163653D01*
X0325721Y0163653D01*
X0325104Y0163036D01*
X0236804Y0210567D02*
X0236804Y0211802D01*
X0236187Y0212419D01*
X0234952Y0212419D01*
X0234952Y0211184D01*
X0233718Y0209950D02*
X0236187Y0209950D01*
X0236804Y0210567D01*
X0236804Y0213633D02*
X0233101Y0213633D01*
X0236804Y0216102D01*
X0233101Y0216102D01*
X0233101Y0217316D02*
X0233101Y0219168D01*
X0233718Y0219785D01*
X0236187Y0219785D01*
X0236804Y0219168D01*
X0236804Y0217316D01*
X0233101Y0217316D01*
X0233718Y0212419D02*
X0233101Y0211802D01*
X0233101Y0210567D01*
X0233718Y0209950D01*
X0216804Y0211184D02*
X0215570Y0212419D01*
X0213101Y0212419D01*
X0213101Y0213633D02*
X0213101Y0215485D01*
X0213718Y0216102D01*
X0216187Y0216102D01*
X0216804Y0215485D01*
X0216804Y0213633D01*
X0213101Y0213633D01*
X0213101Y0209950D02*
X0215570Y0209950D01*
X0216804Y0211184D01*
X0216804Y0217316D02*
X0213101Y0217316D01*
X0213101Y0219168D01*
X0213718Y0219785D01*
X0216187Y0219785D01*
X0216804Y0219168D01*
X0216804Y0217316D01*
X0184322Y0181653D02*
X0182470Y0181653D01*
X0182470Y0177950D01*
X0184322Y0177950D01*
X0184939Y0178567D01*
X0184939Y0181036D01*
X0184322Y0181653D01*
X0181256Y0181653D02*
X0181256Y0177950D01*
X0178787Y0181653D01*
X0178787Y0177950D01*
X0177573Y0178567D02*
X0177573Y0179802D01*
X0176338Y0179802D01*
X0175104Y0181036D02*
X0175104Y0178567D01*
X0175721Y0177950D01*
X0176956Y0177950D01*
X0177573Y0178567D01*
X0177573Y0181036D02*
X0176956Y0181653D01*
X0175721Y0181653D01*
X0175104Y0181036D01*
X0170322Y0195950D02*
X0170939Y0196567D01*
X0170939Y0199036D01*
X0170322Y0199653D01*
X0168470Y0199653D01*
X0168470Y0195950D01*
X0170322Y0195950D01*
X0167256Y0196567D02*
X0167256Y0199036D01*
X0166639Y0199653D01*
X0164787Y0199653D01*
X0164787Y0195950D01*
X0166639Y0195950D01*
X0167256Y0196567D01*
X0163573Y0197184D02*
X0162338Y0195950D01*
X0161104Y0197184D01*
X0161104Y0199653D01*
X0163573Y0199653D02*
X0163573Y0197184D01*
X0136804Y0211184D02*
X0135570Y0212419D01*
X0133101Y0212419D01*
X0133718Y0213633D02*
X0136187Y0213633D01*
X0136804Y0214250D01*
X0136804Y0215485D01*
X0136187Y0216102D01*
X0136187Y0217316D02*
X0133718Y0217316D01*
X0133101Y0217933D01*
X0133101Y0219168D01*
X0133718Y0219785D01*
X0136187Y0219785D02*
X0136804Y0219168D01*
X0136804Y0217933D01*
X0136187Y0217316D01*
X0133718Y0216102D02*
X0133101Y0215485D01*
X0133101Y0214250D01*
X0133718Y0213633D01*
X0133101Y0209950D02*
X0135570Y0209950D01*
X0136804Y0211184D01*
X0114804Y0211633D02*
X0111101Y0211633D01*
X0114804Y0214102D01*
X0111101Y0214102D01*
X0111101Y0215316D02*
X0111101Y0217168D01*
X0111718Y0217785D01*
X0114187Y0217785D01*
X0114804Y0217168D01*
X0114804Y0215316D01*
X0111101Y0215316D01*
X0111718Y0210419D02*
X0111101Y0209802D01*
X0111101Y0208567D01*
X0111718Y0207950D01*
X0114187Y0207950D01*
X0114804Y0208567D01*
X0114804Y0209802D01*
X0114187Y0210419D01*
X0112952Y0210419D01*
X0112952Y0209184D01*
X0091890Y0208567D02*
X0091272Y0207950D01*
X0090038Y0207950D01*
X0089421Y0208567D01*
X0089421Y0211036D01*
X0090038Y0211653D01*
X0091272Y0211653D01*
X0091890Y0211036D01*
X0088206Y0211036D02*
X0087589Y0211653D01*
X0086355Y0211653D01*
X0085738Y0211036D01*
X0085738Y0208567D01*
X0086355Y0207950D01*
X0087589Y0207950D01*
X0088206Y0208567D01*
X0084523Y0209184D02*
X0084523Y0211653D01*
X0082055Y0211653D02*
X0082055Y0209184D01*
X0083289Y0207950D01*
X0084523Y0209184D01*
D12*
X0086331Y0123572D02*
X0085563Y0122805D01*
X0085563Y0119736D01*
X0086331Y0118969D01*
X0087865Y0118969D01*
X0088633Y0119736D01*
X0088633Y0121270D01*
X0087098Y0121270D01*
X0088633Y0122805D02*
X0087865Y0123572D01*
X0086331Y0123572D01*
X0090167Y0123572D02*
X0092469Y0123572D01*
X0093237Y0122805D01*
X0093237Y0121270D01*
X0092469Y0120503D01*
X0090167Y0120503D01*
X0090167Y0118969D02*
X0090167Y0123572D01*
X0091702Y0120503D02*
X0093237Y0118969D01*
X0094771Y0118969D02*
X0096306Y0118969D01*
X0095539Y0118969D02*
X0095539Y0123572D01*
X0096306Y0123572D02*
X0094771Y0123572D01*
X0097841Y0123572D02*
X0100142Y0123572D01*
X0100910Y0122805D01*
X0100910Y0119736D01*
X0100142Y0118969D01*
X0097841Y0118969D01*
X0097841Y0123572D01*
X0102444Y0123572D02*
X0102444Y0118969D01*
X0105514Y0118969D01*
X0103979Y0121270D02*
X0102444Y0121270D01*
X0102444Y0123572D02*
X0105514Y0123572D01*
X0107048Y0123572D02*
X0107048Y0122805D01*
X0108583Y0121270D01*
X0108583Y0118969D01*
X0108583Y0121270D02*
X0110118Y0122805D01*
X0110118Y0123572D01*
X0111652Y0123572D02*
X0111652Y0118969D01*
X0114722Y0118969D01*
X0113187Y0121270D02*
X0111652Y0121270D01*
X0111652Y0123572D02*
X0114722Y0123572D01*
X0215043Y0016612D02*
X0218112Y0012008D01*
X0219647Y0012008D02*
X0219647Y0016612D01*
X0221949Y0016612D01*
X0222716Y0015844D01*
X0222716Y0015077D01*
X0221949Y0014310D01*
X0219647Y0014310D01*
X0221949Y0014310D02*
X0222716Y0013543D01*
X0222716Y0012775D01*
X0221949Y0012008D01*
X0219647Y0012008D01*
X0224251Y0012008D02*
X0224251Y0016612D01*
X0227320Y0016612D01*
X0228855Y0016612D02*
X0228855Y0012008D01*
X0231924Y0012008D01*
X0230389Y0014310D02*
X0228855Y0014310D01*
X0228855Y0016612D02*
X0231924Y0016612D01*
X0227320Y0012008D02*
X0224251Y0012008D01*
X0224251Y0014310D02*
X0225785Y0014310D01*
X0218112Y0016612D02*
X0215043Y0012008D01*
X0321430Y0135169D02*
X0321430Y0138239D01*
X0321430Y0139773D02*
X0326033Y0139773D01*
X0326033Y0142842D01*
X0326033Y0144377D02*
X0321430Y0144377D01*
X0322964Y0145912D01*
X0321430Y0147446D01*
X0326033Y0147446D01*
X0326033Y0148981D02*
X0321430Y0148981D01*
X0321430Y0151283D01*
X0322197Y0152050D01*
X0323732Y0152050D01*
X0324499Y0151283D01*
X0324499Y0148981D01*
X0321430Y0142842D02*
X0321430Y0139773D01*
X0323732Y0139773D02*
X0323732Y0141308D01*
X0326033Y0136704D02*
X0321430Y0136704D01*
X0255503Y0224094D02*
X0253968Y0225629D01*
X0254735Y0225629D02*
X0252433Y0225629D01*
X0252433Y0224094D02*
X0252433Y0228698D01*
X0254735Y0228698D01*
X0255503Y0227931D01*
X0255503Y0226396D01*
X0254735Y0225629D01*
X0250899Y0224094D02*
X0249364Y0224094D01*
X0250131Y0224094D02*
X0250131Y0228698D01*
X0249364Y0228698D02*
X0250899Y0228698D01*
X0247830Y0227931D02*
X0247830Y0226396D01*
X0247062Y0225629D01*
X0244760Y0225629D01*
X0244760Y0224094D02*
X0244760Y0228698D01*
X0247062Y0228698D01*
X0247830Y0227931D01*
D13*
X0240370Y0115950D02*
X0202969Y0115950D01*
X0173441Y0090359D01*
X0173441Y0007682D01*
X0271867Y0007682D01*
X0271867Y0090359D01*
X0240370Y0115950D01*
M02*
