%
M48
M72
T01C0.0276
T02C0.0394
T03C0.0400
T04C0.1457
%
T01
X12495Y14580
X17935Y8445
X17935Y7658
X17935Y6871
X17935Y6083
X17935Y5296
X17935Y4508
X17935Y3721
X17935Y2934
X17935Y2146
X17935Y1359
X26596Y1359
X26596Y2146
X26596Y2934
X26596Y3721
X26596Y4508
X26596Y5296
X26596Y6083
X26596Y6871
X26596Y7658
X26596Y8445
T02
X28579Y14988
X28579Y15988
X28579Y16988
X28579Y17988
X28579Y18988
X23456Y22515
X22456Y22515
X21456Y22515
X16910Y18988
X16910Y17988
X16910Y16988
X16910Y15988
X14171Y16040
X14171Y15040
X14171Y14040
X13438Y13119
X12438Y13119
X11438Y13119
X10438Y13119
X9438Y13119
X14171Y17040
X14171Y18040
X14171Y19040
X13438Y20119
X12438Y20119
X11438Y20119
X10438Y20119
X9438Y20119
X34123Y16097
X34123Y15097
X34123Y14097
X34123Y13097
T03
X31180Y11180
X30180Y11180
X30180Y10180
X31180Y10180
X31180Y9180
X30180Y9180
X30180Y8180
X31180Y8180
X31180Y7180
X30180Y7180
X30180Y6180
X31180Y6180
X31180Y5180
X30180Y5180
X30180Y4180
X31180Y4180
X31180Y3180
X30180Y3180
X30180Y2180
X31180Y2180
X14180Y2180
X13180Y2180
X13180Y3180
X13180Y4180
X13180Y5180
X13180Y6180
X13180Y7180
X13180Y8180
X13180Y9180
X13180Y10180
X13180Y11180
X14180Y11180
X14180Y10180
X14180Y9180
X14180Y8180
X14180Y7180
X14180Y6180
X14180Y5180
X14180Y4180
X14180Y3180
T04
X9070Y1755
X9070Y22621
X35054Y22621
X35054Y1755
M30
