G75*
%MOIN*%
%OFA0B0*%
%FSLAX25Y25*%
%IPPOS*%
%LPD*%
%AMOC8*
5,1,8,0,0,1.08239X$1,22.5*
%
%ADD10C,0.15367*%
%ADD11R,0.08200X0.08200*%
%ADD12C,0.08200*%
%ADD13C,0.06737*%
%ADD14R,0.05131X0.06312*%
%ADD15R,0.06312X0.05131*%
%ADD16C,0.06400*%
%ADD17R,0.06400X0.06400*%
%ADD18R,0.05156X0.05156*%
D10*
X0090702Y0017548D03*
X0090702Y0226209D03*
X0350544Y0226209D03*
X0350544Y0017548D03*
D11*
X0311804Y0111800D03*
X0301804Y0111800D03*
X0141804Y0111800D03*
X0131804Y0111800D03*
D12*
X0131804Y0101800D03*
X0131804Y0091800D03*
X0131804Y0081800D03*
X0131804Y0071800D03*
X0131804Y0061800D03*
X0131804Y0051800D03*
X0131804Y0041800D03*
X0131804Y0031800D03*
X0131804Y0021800D03*
X0141804Y0021800D03*
X0141804Y0031800D03*
X0141804Y0041800D03*
X0141804Y0051800D03*
X0141804Y0061800D03*
X0141804Y0071800D03*
X0141804Y0081800D03*
X0141804Y0091800D03*
X0141804Y0101800D03*
X0301804Y0101800D03*
X0311804Y0101800D03*
X0311804Y0091800D03*
X0301804Y0091800D03*
X0301804Y0081800D03*
X0311804Y0081800D03*
X0311804Y0071800D03*
X0301804Y0071800D03*
X0301804Y0061800D03*
X0311804Y0061800D03*
X0311804Y0051800D03*
X0301804Y0051800D03*
X0301804Y0041800D03*
X0311804Y0041800D03*
X0311804Y0031800D03*
X0301804Y0031800D03*
X0301804Y0021800D03*
X0311804Y0021800D03*
D13*
X0341233Y0130969D03*
X0341233Y0140969D03*
X0341233Y0150969D03*
X0341233Y0160969D03*
X0285793Y0159883D03*
X0285793Y0169883D03*
X0285793Y0179883D03*
X0285793Y0189883D03*
X0285793Y0149883D03*
X0234560Y0225146D03*
X0224560Y0225146D03*
X0214560Y0225146D03*
X0169100Y0189883D03*
X0169100Y0179883D03*
X0169100Y0169883D03*
X0169100Y0159883D03*
X0141706Y0160402D03*
X0141706Y0150402D03*
X0141706Y0140402D03*
X0134383Y0131190D03*
X0124383Y0131190D03*
X0114383Y0131190D03*
X0104383Y0131190D03*
X0094383Y0131190D03*
X0141706Y0170402D03*
X0141706Y0180402D03*
X0141706Y0190402D03*
X0134383Y0201190D03*
X0124383Y0201190D03*
X0114383Y0201190D03*
X0104383Y0201190D03*
X0094383Y0201190D03*
D14*
X0222560Y0173343D03*
X0230434Y0173343D03*
X0230434Y0155595D03*
X0222560Y0155595D03*
X0222560Y0139847D03*
X0230434Y0139847D03*
D15*
X0094639Y0163217D03*
X0094639Y0171091D03*
D16*
X0179347Y0076580D03*
X0179347Y0068706D03*
X0179347Y0060831D03*
X0179347Y0052957D03*
X0179347Y0045083D03*
X0179347Y0037209D03*
X0179347Y0029335D03*
X0179347Y0021461D03*
X0179347Y0013587D03*
X0265961Y0013587D03*
X0265961Y0021461D03*
X0265961Y0029335D03*
X0265961Y0037209D03*
X0265961Y0045083D03*
X0265961Y0052957D03*
X0265961Y0060831D03*
X0265961Y0068706D03*
X0265961Y0076580D03*
X0265961Y0084454D03*
D17*
X0179347Y0084454D03*
D18*
X0124954Y0145800D03*
M02*
