G75*
%MOIN*%
%OFA0B0*%
%FSLAX25Y25*%
%IPPOS*%
%LPD*%
%AMOC8*
5,1,8,0,0,1.08239X$1,22.5*
%
%ADD10R,0.07400X0.07400*%
%ADD11C,0.07400*%
%ADD12C,0.05937*%
%ADD13C,0.05600*%
%ADD14R,0.05600X0.05600*%
%ADD15C,0.01600*%
%ADD16R,0.04356X0.04356*%
%ADD17C,0.02400*%
D10*
X0131804Y0111800D03*
X0141804Y0111800D03*
X0301804Y0111800D03*
X0311804Y0111800D03*
D11*
X0311804Y0101800D03*
X0301804Y0101800D03*
X0301804Y0091800D03*
X0311804Y0091800D03*
X0311804Y0081800D03*
X0301804Y0081800D03*
X0301804Y0071800D03*
X0311804Y0071800D03*
X0311804Y0061800D03*
X0301804Y0061800D03*
X0301804Y0051800D03*
X0311804Y0051800D03*
X0311804Y0041800D03*
X0301804Y0041800D03*
X0301804Y0031800D03*
X0311804Y0031800D03*
X0311804Y0021800D03*
X0301804Y0021800D03*
X0141804Y0021800D03*
X0131804Y0021800D03*
X0131804Y0031800D03*
X0131804Y0041800D03*
X0131804Y0051800D03*
X0131804Y0061800D03*
X0131804Y0071800D03*
X0131804Y0081800D03*
X0131804Y0091800D03*
X0131804Y0101800D03*
X0141804Y0101800D03*
X0141804Y0091800D03*
X0141804Y0081800D03*
X0141804Y0071800D03*
X0141804Y0061800D03*
X0141804Y0051800D03*
X0141804Y0041800D03*
X0141804Y0031800D03*
D12*
X0134383Y0131190D03*
X0124383Y0131190D03*
X0114383Y0131190D03*
X0104383Y0131190D03*
X0094383Y0131190D03*
X0141706Y0140402D03*
X0141706Y0150402D03*
X0141706Y0160402D03*
X0141706Y0170402D03*
X0141706Y0180402D03*
X0141706Y0190402D03*
X0134383Y0201190D03*
X0124383Y0201190D03*
X0114383Y0201190D03*
X0104383Y0201190D03*
X0094383Y0201190D03*
X0169100Y0189883D03*
X0169100Y0179883D03*
X0169100Y0169883D03*
X0169100Y0159883D03*
X0214560Y0225146D03*
X0224560Y0225146D03*
X0234560Y0225146D03*
X0285793Y0189883D03*
X0285793Y0179883D03*
X0285793Y0169883D03*
X0285793Y0159883D03*
X0285793Y0149883D03*
X0341233Y0150969D03*
X0341233Y0140969D03*
X0341233Y0130969D03*
X0341233Y0160969D03*
D13*
X0265961Y0084454D03*
X0265961Y0076580D03*
X0265961Y0068706D03*
X0265961Y0060831D03*
X0265961Y0052957D03*
X0265961Y0045083D03*
X0265961Y0037209D03*
X0265961Y0029335D03*
X0265961Y0021461D03*
X0265961Y0013587D03*
X0179347Y0013587D03*
X0179347Y0021461D03*
X0179347Y0029335D03*
X0179347Y0037209D03*
X0179347Y0045083D03*
X0179347Y0052957D03*
X0179347Y0060831D03*
X0179347Y0068706D03*
X0179347Y0076580D03*
D14*
X0179347Y0084454D03*
D15*
X0079754Y0022752D02*
X0079754Y0221005D01*
X0081033Y0218790D01*
X0083283Y0216540D01*
X0086038Y0214949D01*
X0089111Y0214126D01*
X0092293Y0214126D01*
X0095366Y0214949D01*
X0098121Y0216540D01*
X0100371Y0218790D01*
X0101962Y0221545D01*
X0102785Y0224619D01*
X0102785Y0227800D01*
X0101962Y0230873D01*
X0100607Y0233220D01*
X0340640Y0233220D01*
X0339284Y0230873D01*
X0338461Y0227800D01*
X0338461Y0224619D01*
X0339284Y0221545D01*
X0340875Y0218790D01*
X0343125Y0216540D01*
X0345880Y0214949D01*
X0348954Y0214126D01*
X0352135Y0214126D01*
X0355209Y0214949D01*
X0357964Y0216540D01*
X0360214Y0218790D01*
X0361493Y0221005D01*
X0361493Y0022752D01*
X0360214Y0024967D01*
X0357964Y0027217D01*
X0355209Y0028808D01*
X0352135Y0029631D01*
X0348954Y0029631D01*
X0345880Y0028808D01*
X0343125Y0027217D01*
X0340875Y0024967D01*
X0339284Y0022212D01*
X0338461Y0019139D01*
X0338461Y0015957D01*
X0339284Y0012884D01*
X0340875Y0010129D01*
X0343125Y0007879D01*
X0345340Y0006600D01*
X0322323Y0006600D01*
X0333039Y0016551D01*
X0333106Y0016579D01*
X0333591Y0017063D01*
X0334094Y0017530D01*
X0334124Y0017596D01*
X0334175Y0017647D01*
X0334438Y0018281D01*
X0334723Y0018904D01*
X0334726Y0018977D01*
X0334754Y0019044D01*
X0334754Y0019730D01*
X0334779Y0020415D01*
X0334754Y0020483D01*
X0334754Y0072556D01*
X0334175Y0073953D01*
X0324175Y0083953D01*
X0323106Y0085021D01*
X0321710Y0085600D01*
X0317480Y0085600D01*
X0316280Y0086800D01*
X0317484Y0088005D01*
X0318504Y0090467D01*
X0318504Y0093133D01*
X0317484Y0095595D01*
X0316280Y0096800D01*
X0317484Y0098005D01*
X0318504Y0100467D01*
X0318504Y0103133D01*
X0317484Y0105595D01*
X0317363Y0105716D01*
X0318048Y0106401D01*
X0318504Y0107503D01*
X0318504Y0116097D01*
X0318048Y0117199D01*
X0317204Y0118043D01*
X0316101Y0118500D01*
X0307508Y0118500D01*
X0306804Y0118209D01*
X0306101Y0118500D01*
X0301044Y0118500D01*
X0300010Y0119534D01*
X0298467Y0120173D01*
X0289292Y0120173D01*
X0283878Y0125587D01*
X0283878Y0140431D01*
X0283239Y0141974D01*
X0282057Y0143156D01*
X0218760Y0206453D01*
X0218760Y0220906D01*
X0219560Y0221706D01*
X0221179Y0220087D01*
X0223373Y0219178D01*
X0225747Y0219178D01*
X0227941Y0220087D01*
X0229620Y0221766D01*
X0230208Y0223185D01*
X0230482Y0222647D01*
X0230923Y0222040D01*
X0231454Y0221509D01*
X0232061Y0221068D01*
X0232730Y0220727D01*
X0233444Y0220495D01*
X0234185Y0220378D01*
X0234376Y0220378D01*
X0234376Y0224962D01*
X0234744Y0224962D01*
X0234744Y0220378D01*
X0234936Y0220378D01*
X0235677Y0220495D01*
X0236391Y0220727D01*
X0237059Y0221068D01*
X0237667Y0221509D01*
X0238197Y0222040D01*
X0238639Y0222647D01*
X0238979Y0223316D01*
X0239211Y0224030D01*
X0239329Y0224771D01*
X0239329Y0224962D01*
X0234745Y0224962D01*
X0234745Y0225331D01*
X0239329Y0225331D01*
X0239329Y0225522D01*
X0239211Y0226263D01*
X0238979Y0226977D01*
X0238639Y0227646D01*
X0238197Y0228253D01*
X0237667Y0228784D01*
X0237059Y0229225D01*
X0236391Y0229566D01*
X0235677Y0229798D01*
X0234936Y0229915D01*
X0234744Y0229915D01*
X0234744Y0225331D01*
X0234376Y0225331D01*
X0234376Y0229915D01*
X0234185Y0229915D01*
X0233444Y0229798D01*
X0232730Y0229566D01*
X0232061Y0229225D01*
X0231454Y0228784D01*
X0230923Y0228253D01*
X0230482Y0227646D01*
X0230208Y0227108D01*
X0229620Y0228527D01*
X0227941Y0230206D01*
X0225747Y0231115D01*
X0223373Y0231115D01*
X0221179Y0230206D01*
X0219560Y0228587D01*
X0217941Y0230206D01*
X0215747Y0231115D01*
X0213373Y0231115D01*
X0211179Y0230206D01*
X0209500Y0228527D01*
X0208592Y0226334D01*
X0208592Y0223959D01*
X0209500Y0221766D01*
X0210360Y0220906D01*
X0210360Y0208913D01*
X0183095Y0208913D01*
X0181551Y0208274D01*
X0169128Y0195851D01*
X0167912Y0195851D01*
X0165719Y0194943D01*
X0164040Y0193264D01*
X0163131Y0191070D01*
X0163131Y0188695D01*
X0164040Y0186502D01*
X0165719Y0184823D01*
X0167138Y0184235D01*
X0166600Y0183961D01*
X0165993Y0183520D01*
X0165462Y0182989D01*
X0165021Y0182382D01*
X0164680Y0181713D01*
X0164449Y0180999D01*
X0164331Y0180258D01*
X0164331Y0180067D01*
X0168915Y0180067D01*
X0168915Y0179698D01*
X0164331Y0179698D01*
X0164331Y0179507D01*
X0164449Y0178766D01*
X0164680Y0178052D01*
X0165021Y0177383D01*
X0165462Y0176776D01*
X0165993Y0176245D01*
X0166600Y0175804D01*
X0167138Y0175530D01*
X0165719Y0174943D01*
X0164040Y0173264D01*
X0163131Y0171070D01*
X0163131Y0170997D01*
X0160754Y0173374D01*
X0160754Y0194556D01*
X0160175Y0195953D01*
X0154175Y0201953D01*
X0153106Y0203021D01*
X0151710Y0203600D01*
X0143164Y0203600D01*
X0142622Y0203660D01*
X0142414Y0203600D01*
X0142198Y0203600D01*
X0141694Y0203391D01*
X0141170Y0203239D01*
X0141001Y0203104D01*
X0140801Y0203021D01*
X0140416Y0202636D01*
X0140287Y0202533D01*
X0139443Y0204571D01*
X0137764Y0206250D01*
X0135570Y0207158D01*
X0133196Y0207158D01*
X0131002Y0206250D01*
X0129383Y0204630D01*
X0127764Y0206250D01*
X0125570Y0207158D01*
X0123196Y0207158D01*
X0121002Y0206250D01*
X0119323Y0204571D01*
X0118735Y0203151D01*
X0118461Y0203689D01*
X0118020Y0204296D01*
X0117490Y0204827D01*
X0116882Y0205268D01*
X0116214Y0205609D01*
X0115500Y0205841D01*
X0114758Y0205958D01*
X0114567Y0205958D01*
X0114567Y0201374D01*
X0114199Y0201374D01*
X0114199Y0205958D01*
X0114008Y0205958D01*
X0113266Y0205841D01*
X0112553Y0205609D01*
X0111884Y0205268D01*
X0111277Y0204827D01*
X0110746Y0204296D01*
X0110305Y0203689D01*
X0110031Y0203151D01*
X0109443Y0204571D01*
X0107764Y0206250D01*
X0105570Y0207158D01*
X0103196Y0207158D01*
X0101002Y0206250D01*
X0099383Y0204630D01*
X0097764Y0206250D01*
X0095570Y0207158D01*
X0093196Y0207158D01*
X0091002Y0206250D01*
X0089323Y0204571D01*
X0088415Y0202377D01*
X0088415Y0200003D01*
X0089323Y0197809D01*
X0091002Y0196130D01*
X0093196Y0195221D01*
X0095570Y0195221D01*
X0097764Y0196130D01*
X0099383Y0197749D01*
X0101002Y0196130D01*
X0103196Y0195221D01*
X0105570Y0195221D01*
X0107764Y0196130D01*
X0109443Y0197809D01*
X0110031Y0199228D01*
X0110305Y0198691D01*
X0110746Y0198083D01*
X0111277Y0197553D01*
X0111884Y0197111D01*
X0112553Y0196771D01*
X0113266Y0196539D01*
X0114008Y0196421D01*
X0114199Y0196421D01*
X0114199Y0201005D01*
X0114567Y0201005D01*
X0114567Y0196421D01*
X0114758Y0196421D01*
X0115500Y0196539D01*
X0116214Y0196771D01*
X0116882Y0197111D01*
X0117490Y0197553D01*
X0118020Y0198083D01*
X0118461Y0198691D01*
X0118735Y0199228D01*
X0119323Y0197809D01*
X0121002Y0196130D01*
X0123196Y0195221D01*
X0125570Y0195221D01*
X0127764Y0196130D01*
X0129383Y0197749D01*
X0131002Y0196130D01*
X0131846Y0195780D01*
X0131001Y0195104D01*
X0130801Y0195021D01*
X0130416Y0194636D01*
X0129990Y0194295D01*
X0129885Y0194106D01*
X0112801Y0177021D01*
X0111732Y0175953D01*
X0111154Y0174556D01*
X0111154Y0167374D01*
X0083543Y0139764D01*
X0082965Y0138367D01*
X0082965Y0075847D01*
X0083543Y0074451D01*
X0084612Y0073382D01*
X0099292Y0058703D01*
X0100360Y0057634D01*
X0101757Y0057055D01*
X0127074Y0057055D01*
X0127329Y0056800D01*
X0126124Y0055595D01*
X0125104Y0053133D01*
X0125104Y0050467D01*
X0126124Y0048005D01*
X0127329Y0046800D01*
X0126124Y0045595D01*
X0125104Y0043133D01*
X0125104Y0040467D01*
X0126124Y0038005D01*
X0127329Y0036800D01*
X0126124Y0035595D01*
X0125104Y0033133D01*
X0125104Y0030467D01*
X0126124Y0028005D01*
X0127329Y0026800D01*
X0126124Y0025595D01*
X0125104Y0023133D01*
X0125104Y0020467D01*
X0126124Y0018005D01*
X0128009Y0016120D01*
X0130472Y0015100D01*
X0133137Y0015100D01*
X0135600Y0016120D01*
X0136804Y0017325D01*
X0138009Y0016120D01*
X0140472Y0015100D01*
X0143137Y0015100D01*
X0145600Y0016120D01*
X0147484Y0018005D01*
X0148504Y0020467D01*
X0148504Y0023133D01*
X0147484Y0025595D01*
X0146280Y0026800D01*
X0147484Y0028005D01*
X0148504Y0030467D01*
X0148504Y0033133D01*
X0147484Y0035595D01*
X0146280Y0036800D01*
X0147484Y0038005D01*
X0148504Y0040467D01*
X0148504Y0043133D01*
X0147484Y0045595D01*
X0146280Y0046800D01*
X0147484Y0048005D01*
X0148504Y0050467D01*
X0148504Y0053133D01*
X0147484Y0055595D01*
X0146280Y0056800D01*
X0147484Y0058005D01*
X0148504Y0060467D01*
X0148504Y0063133D01*
X0147484Y0065595D01*
X0146280Y0066800D01*
X0147484Y0068005D01*
X0148504Y0070467D01*
X0148504Y0073133D01*
X0147484Y0075595D01*
X0146280Y0076800D01*
X0147484Y0078005D01*
X0148504Y0080467D01*
X0148504Y0083133D01*
X0147484Y0085595D01*
X0146280Y0086800D01*
X0147484Y0088005D01*
X0148504Y0090467D01*
X0148504Y0093133D01*
X0147484Y0095595D01*
X0146280Y0096800D01*
X0147484Y0098005D01*
X0148504Y0100467D01*
X0148504Y0103133D01*
X0147484Y0105595D01*
X0147363Y0105716D01*
X0148048Y0106401D01*
X0148504Y0107503D01*
X0148504Y0116097D01*
X0148048Y0117199D01*
X0147204Y0118043D01*
X0146101Y0118500D01*
X0137508Y0118500D01*
X0136405Y0118043D01*
X0135662Y0117300D01*
X0132004Y0117300D01*
X0132004Y0112000D01*
X0131604Y0112000D01*
X0131604Y0111600D01*
X0126304Y0111600D01*
X0126304Y0107863D01*
X0126427Y0107405D01*
X0126664Y0106995D01*
X0126999Y0106660D01*
X0127119Y0106590D01*
X0126124Y0105595D01*
X0125104Y0103133D01*
X0125104Y0100467D01*
X0126124Y0098005D01*
X0127329Y0096800D01*
X0126124Y0095595D01*
X0125104Y0093133D01*
X0125104Y0090467D01*
X0126124Y0088005D01*
X0127329Y0086800D01*
X0126124Y0085595D01*
X0125104Y0083133D01*
X0125104Y0080467D01*
X0126124Y0078005D01*
X0127329Y0076800D01*
X0126124Y0075595D01*
X0125104Y0073133D01*
X0125104Y0070467D01*
X0126124Y0068005D01*
X0127329Y0066800D01*
X0126124Y0065595D01*
X0125735Y0064655D01*
X0104087Y0064655D01*
X0090565Y0078177D01*
X0090565Y0126567D01*
X0091002Y0126130D01*
X0093196Y0125221D01*
X0095570Y0125221D01*
X0097764Y0126130D01*
X0099383Y0127749D01*
X0101002Y0126130D01*
X0103196Y0125221D01*
X0105570Y0125221D01*
X0107764Y0126130D01*
X0109383Y0127749D01*
X0111002Y0126130D01*
X0113196Y0125221D01*
X0115570Y0125221D01*
X0117764Y0126130D01*
X0119383Y0127749D01*
X0121002Y0126130D01*
X0123196Y0125221D01*
X0125570Y0125221D01*
X0127764Y0126130D01*
X0129383Y0127749D01*
X0131002Y0126130D01*
X0133196Y0125221D01*
X0135570Y0125221D01*
X0137764Y0126130D01*
X0139443Y0127809D01*
X0140352Y0130003D01*
X0140352Y0132377D01*
X0139443Y0134571D01*
X0138916Y0135098D01*
X0140519Y0134434D01*
X0142893Y0134434D01*
X0145087Y0135343D01*
X0146766Y0137021D01*
X0147674Y0139215D01*
X0147674Y0141590D01*
X0146766Y0143783D01*
X0145147Y0145402D01*
X0146766Y0147021D01*
X0147674Y0149215D01*
X0147674Y0151590D01*
X0146766Y0153783D01*
X0145147Y0155402D01*
X0146766Y0157021D01*
X0147674Y0159215D01*
X0147674Y0161590D01*
X0146766Y0163783D01*
X0145147Y0165402D01*
X0146766Y0167021D01*
X0147674Y0169215D01*
X0147674Y0171590D01*
X0146766Y0173783D01*
X0145147Y0175402D01*
X0146766Y0177021D01*
X0147674Y0179215D01*
X0147674Y0181590D01*
X0146766Y0183783D01*
X0145147Y0185402D01*
X0146766Y0187021D01*
X0147674Y0189215D01*
X0147674Y0191590D01*
X0146766Y0193783D01*
X0145087Y0195462D01*
X0144117Y0195864D01*
X0144287Y0196000D01*
X0149380Y0196000D01*
X0153154Y0192226D01*
X0153154Y0171044D01*
X0153732Y0169647D01*
X0154801Y0168579D01*
X0160801Y0162579D01*
X0161191Y0162417D01*
X0163131Y0160477D01*
X0163131Y0158695D01*
X0164040Y0156502D01*
X0165719Y0154823D01*
X0167912Y0153914D01*
X0170287Y0153914D01*
X0172480Y0154823D01*
X0174159Y0156502D01*
X0175068Y0158695D01*
X0175068Y0161070D01*
X0174159Y0163264D01*
X0172540Y0164883D01*
X0174159Y0166502D01*
X0175068Y0168695D01*
X0175068Y0171070D01*
X0174159Y0173264D01*
X0172480Y0174943D01*
X0171061Y0175530D01*
X0171599Y0175804D01*
X0172206Y0176245D01*
X0172737Y0176776D01*
X0173178Y0177383D01*
X0173519Y0178052D01*
X0173751Y0178766D01*
X0173868Y0179507D01*
X0173868Y0179698D01*
X0169284Y0179698D01*
X0169284Y0180067D01*
X0173868Y0180067D01*
X0173868Y0180258D01*
X0173751Y0180999D01*
X0173519Y0181713D01*
X0173178Y0182382D01*
X0172737Y0182989D01*
X0172206Y0183520D01*
X0171599Y0183961D01*
X0171061Y0184235D01*
X0172480Y0184823D01*
X0174159Y0186502D01*
X0175068Y0188695D01*
X0175068Y0189911D01*
X0185670Y0200513D01*
X0212821Y0200513D01*
X0275478Y0137856D01*
X0275478Y0123012D01*
X0276118Y0121468D01*
X0283992Y0113594D01*
X0285173Y0112413D01*
X0286717Y0111773D01*
X0295104Y0111773D01*
X0295104Y0107503D01*
X0295561Y0106401D01*
X0296405Y0105557D01*
X0297428Y0105133D01*
X0297100Y0104683D01*
X0296707Y0103911D01*
X0296440Y0103088D01*
X0296304Y0102233D01*
X0296304Y0102000D01*
X0301604Y0102000D01*
X0301604Y0101600D01*
X0296304Y0101600D01*
X0296304Y0101367D01*
X0296440Y0100512D01*
X0296707Y0099689D01*
X0297100Y0098917D01*
X0297609Y0098217D01*
X0298221Y0097605D01*
X0298254Y0097581D01*
X0298009Y0097480D01*
X0296124Y0095595D01*
X0295104Y0093133D01*
X0295104Y0090467D01*
X0296124Y0088005D01*
X0297329Y0086800D01*
X0296124Y0085595D01*
X0295104Y0083133D01*
X0295104Y0080467D01*
X0296124Y0078005D01*
X0297329Y0076800D01*
X0296124Y0075595D01*
X0295104Y0073133D01*
X0295104Y0070467D01*
X0296124Y0068005D01*
X0297329Y0066800D01*
X0296124Y0065595D01*
X0295104Y0063133D01*
X0295104Y0060467D01*
X0296124Y0058005D01*
X0297329Y0056800D01*
X0296139Y0055610D01*
X0271761Y0076600D01*
X0271761Y0077733D01*
X0270878Y0079865D01*
X0270226Y0080517D01*
X0270878Y0081168D01*
X0271761Y0083300D01*
X0271761Y0085607D01*
X0270878Y0087739D01*
X0269246Y0089371D01*
X0267115Y0090254D01*
X0264807Y0090254D01*
X0262676Y0089371D01*
X0261044Y0087739D01*
X0260161Y0085607D01*
X0260161Y0083300D01*
X0261044Y0081168D01*
X0261696Y0080517D01*
X0261044Y0079865D01*
X0260161Y0077733D01*
X0260161Y0075426D01*
X0261044Y0073294D01*
X0261696Y0072643D01*
X0261044Y0071991D01*
X0260161Y0069859D01*
X0260161Y0067552D01*
X0261044Y0065420D01*
X0261696Y0064768D01*
X0261044Y0064117D01*
X0260161Y0061985D01*
X0260161Y0059678D01*
X0261044Y0057546D01*
X0261696Y0056894D01*
X0261044Y0056243D01*
X0260161Y0054111D01*
X0260161Y0051804D01*
X0261044Y0049672D01*
X0261696Y0049020D01*
X0261044Y0048369D01*
X0260161Y0046237D01*
X0260161Y0043930D01*
X0261044Y0041798D01*
X0261696Y0041146D01*
X0261044Y0040495D01*
X0260161Y0038363D01*
X0260161Y0036056D01*
X0261044Y0033924D01*
X0261696Y0033272D01*
X0261044Y0032621D01*
X0260161Y0030489D01*
X0260161Y0028182D01*
X0261044Y0026050D01*
X0261696Y0025398D01*
X0261044Y0024747D01*
X0260161Y0022615D01*
X0260161Y0020308D01*
X0261044Y0018176D01*
X0261696Y0017524D01*
X0261044Y0016873D01*
X0260161Y0014741D01*
X0260161Y0012434D01*
X0260921Y0010600D01*
X0254510Y0010600D01*
X0192725Y0071403D01*
X0192201Y0071927D01*
X0192186Y0071933D01*
X0192175Y0071944D01*
X0191489Y0072222D01*
X0190804Y0072505D01*
X0190788Y0072505D01*
X0190774Y0072511D01*
X0190033Y0072505D01*
X0183749Y0072505D01*
X0183612Y0072643D01*
X0184264Y0073294D01*
X0185147Y0075426D01*
X0185147Y0077733D01*
X0184363Y0079627D01*
X0184690Y0079954D01*
X0185147Y0081057D01*
X0185147Y0087850D01*
X0184690Y0088953D01*
X0183846Y0089797D01*
X0182744Y0090254D01*
X0175950Y0090254D01*
X0174847Y0089797D01*
X0174004Y0088953D01*
X0173547Y0087850D01*
X0173547Y0081057D01*
X0174004Y0079954D01*
X0174331Y0079627D01*
X0173547Y0077733D01*
X0173547Y0075426D01*
X0174430Y0073294D01*
X0175081Y0072643D01*
X0174430Y0071991D01*
X0173547Y0069859D01*
X0173547Y0067552D01*
X0174430Y0065420D01*
X0175081Y0064768D01*
X0174430Y0064117D01*
X0173547Y0061985D01*
X0173547Y0059678D01*
X0174430Y0057546D01*
X0175081Y0056894D01*
X0174430Y0056243D01*
X0173547Y0054111D01*
X0173547Y0051804D01*
X0174430Y0049672D01*
X0175081Y0049020D01*
X0174430Y0048369D01*
X0173547Y0046237D01*
X0173547Y0043930D01*
X0174430Y0041798D01*
X0175081Y0041146D01*
X0174430Y0040495D01*
X0173547Y0038363D01*
X0173547Y0036056D01*
X0174430Y0033924D01*
X0175081Y0033272D01*
X0174430Y0032621D01*
X0173547Y0030489D01*
X0173547Y0028182D01*
X0174430Y0026050D01*
X0175081Y0025398D01*
X0174430Y0024747D01*
X0173547Y0022615D01*
X0173547Y0020308D01*
X0174430Y0018176D01*
X0175930Y0016676D01*
X0175838Y0016584D01*
X0175413Y0015998D01*
X0175084Y0015353D01*
X0174860Y0014665D01*
X0174747Y0013949D01*
X0174747Y0013587D01*
X0174747Y0013225D01*
X0174860Y0012510D01*
X0175084Y0011822D01*
X0175413Y0011176D01*
X0175838Y0010591D01*
X0176350Y0010079D01*
X0176936Y0009653D01*
X0177581Y0009324D01*
X0178270Y0009101D01*
X0178985Y0008987D01*
X0179347Y0008987D01*
X0179709Y0008987D01*
X0180424Y0009101D01*
X0181113Y0009324D01*
X0181758Y0009653D01*
X0182344Y0010079D01*
X0182856Y0010591D01*
X0183281Y0011176D01*
X0183610Y0011822D01*
X0183834Y0012510D01*
X0183947Y0013225D01*
X0183947Y0013587D01*
X0179347Y0013587D01*
X0179347Y0008987D01*
X0179347Y0013587D01*
X0179347Y0013587D01*
X0179347Y0013587D01*
X0174747Y0013587D01*
X0179347Y0013587D01*
X0179347Y0013587D01*
X0183947Y0013587D01*
X0183947Y0013949D01*
X0183834Y0014665D01*
X0183610Y0015353D01*
X0183281Y0015998D01*
X0182856Y0016584D01*
X0182764Y0016676D01*
X0184264Y0018176D01*
X0185147Y0020308D01*
X0185147Y0022615D01*
X0184264Y0024747D01*
X0183612Y0025398D01*
X0184264Y0026050D01*
X0185147Y0028182D01*
X0185147Y0030489D01*
X0184264Y0032621D01*
X0183612Y0033272D01*
X0184264Y0033924D01*
X0185147Y0036056D01*
X0185147Y0038363D01*
X0184264Y0040495D01*
X0183612Y0041146D01*
X0184264Y0041798D01*
X0185147Y0043930D01*
X0185147Y0046237D01*
X0184264Y0048369D01*
X0183612Y0049020D01*
X0184264Y0049672D01*
X0185147Y0051804D01*
X0185147Y0054111D01*
X0184264Y0056243D01*
X0183612Y0056894D01*
X0184264Y0057546D01*
X0185147Y0059678D01*
X0185147Y0061985D01*
X0184264Y0064117D01*
X0183612Y0064768D01*
X0183749Y0064906D01*
X0188492Y0064906D01*
X0247740Y0006600D01*
X0095906Y0006600D01*
X0098121Y0007879D01*
X0100371Y0010129D01*
X0101962Y0012884D01*
X0102785Y0015957D01*
X0102785Y0019139D01*
X0101962Y0022212D01*
X0100371Y0024967D01*
X0098121Y0027217D01*
X0095366Y0028808D01*
X0092293Y0029631D01*
X0089111Y0029631D01*
X0086038Y0028808D01*
X0083283Y0027217D01*
X0081033Y0024967D01*
X0079754Y0022752D01*
X0079754Y0024179D02*
X0080578Y0024179D01*
X0079754Y0025778D02*
X0081843Y0025778D01*
X0083558Y0027376D02*
X0079754Y0027376D01*
X0079754Y0028975D02*
X0086660Y0028975D01*
X0079754Y0030573D02*
X0125104Y0030573D01*
X0125104Y0032172D02*
X0079754Y0032172D01*
X0079754Y0033770D02*
X0125368Y0033770D01*
X0126031Y0035369D02*
X0079754Y0035369D01*
X0079754Y0036967D02*
X0127162Y0036967D01*
X0125892Y0038566D02*
X0079754Y0038566D01*
X0079754Y0040164D02*
X0125230Y0040164D01*
X0125104Y0041763D02*
X0079754Y0041763D01*
X0079754Y0043361D02*
X0125199Y0043361D01*
X0125861Y0044960D02*
X0079754Y0044960D01*
X0079754Y0046558D02*
X0127087Y0046558D01*
X0126061Y0048157D02*
X0079754Y0048157D01*
X0079754Y0049755D02*
X0125399Y0049755D01*
X0125104Y0051354D02*
X0079754Y0051354D01*
X0079754Y0052952D02*
X0125104Y0052952D01*
X0125692Y0054551D02*
X0079754Y0054551D01*
X0079754Y0056149D02*
X0126678Y0056149D01*
X0131804Y0051800D02*
X0131804Y0061800D01*
X0130859Y0060855D01*
X0102513Y0060855D01*
X0086765Y0076603D01*
X0086765Y0137611D01*
X0114954Y0165800D01*
X0114954Y0173800D01*
X0132954Y0191800D01*
X0142954Y0199800D01*
X0150954Y0199800D01*
X0156954Y0193800D01*
X0156954Y0171800D01*
X0162954Y0165800D01*
X0163182Y0165800D01*
X0169100Y0159883D01*
X0174827Y0161651D02*
X0251683Y0161651D01*
X0253281Y0160053D02*
X0175068Y0160053D01*
X0174968Y0158454D02*
X0254880Y0158454D01*
X0256478Y0156856D02*
X0174306Y0156856D01*
X0172915Y0155257D02*
X0258077Y0155257D01*
X0259675Y0153659D02*
X0146817Y0153659D01*
X0147480Y0152060D02*
X0261274Y0152060D01*
X0262872Y0150462D02*
X0147674Y0150462D01*
X0147529Y0148863D02*
X0264471Y0148863D01*
X0266069Y0147265D02*
X0146866Y0147265D01*
X0145410Y0145666D02*
X0267668Y0145666D01*
X0269266Y0144068D02*
X0146481Y0144068D01*
X0147310Y0142469D02*
X0270865Y0142469D01*
X0272463Y0140870D02*
X0147674Y0140870D01*
X0147674Y0139272D02*
X0274062Y0139272D01*
X0275478Y0137673D02*
X0147036Y0137673D01*
X0145819Y0136075D02*
X0275478Y0136075D01*
X0275478Y0134476D02*
X0142996Y0134476D01*
X0140416Y0134476D02*
X0139482Y0134476D01*
X0140144Y0132878D02*
X0275478Y0132878D01*
X0275478Y0131279D02*
X0140352Y0131279D01*
X0140218Y0129681D02*
X0275478Y0129681D01*
X0275478Y0128082D02*
X0139556Y0128082D01*
X0138118Y0126484D02*
X0275478Y0126484D01*
X0275478Y0124885D02*
X0090565Y0124885D01*
X0090565Y0123287D02*
X0275478Y0123287D01*
X0276027Y0121688D02*
X0090565Y0121688D01*
X0090565Y0120090D02*
X0277496Y0120090D01*
X0279095Y0118491D02*
X0146122Y0118491D01*
X0148175Y0116893D02*
X0280693Y0116893D01*
X0282292Y0115294D02*
X0148504Y0115294D01*
X0148504Y0113696D02*
X0283890Y0113696D01*
X0285935Y0112097D02*
X0148504Y0112097D01*
X0148504Y0110499D02*
X0295104Y0110499D01*
X0295104Y0108900D02*
X0148504Y0108900D01*
X0148421Y0107302D02*
X0295188Y0107302D01*
X0296258Y0105703D02*
X0147376Y0105703D01*
X0148102Y0104105D02*
X0296806Y0104105D01*
X0296348Y0102506D02*
X0148504Y0102506D01*
X0148504Y0100908D02*
X0296377Y0100908D01*
X0296901Y0099309D02*
X0148025Y0099309D01*
X0147190Y0097711D02*
X0298115Y0097711D01*
X0296641Y0096112D02*
X0146967Y0096112D01*
X0147932Y0094514D02*
X0295676Y0094514D01*
X0295104Y0092915D02*
X0148504Y0092915D01*
X0148504Y0091317D02*
X0295104Y0091317D01*
X0295415Y0089718D02*
X0268407Y0089718D01*
X0270497Y0088120D02*
X0296077Y0088120D01*
X0297050Y0086521D02*
X0271382Y0086521D01*
X0271761Y0084923D02*
X0295846Y0084923D01*
X0295184Y0083324D02*
X0271761Y0083324D01*
X0271109Y0081726D02*
X0295104Y0081726D01*
X0295245Y0080127D02*
X0270616Y0080127D01*
X0271432Y0078529D02*
X0295907Y0078529D01*
X0297199Y0076930D02*
X0271761Y0076930D01*
X0273234Y0075332D02*
X0296015Y0075332D01*
X0295353Y0073733D02*
X0275091Y0073733D01*
X0276948Y0072134D02*
X0295104Y0072134D01*
X0295104Y0070536D02*
X0278804Y0070536D01*
X0280661Y0068937D02*
X0295738Y0068937D01*
X0296790Y0067339D02*
X0282517Y0067339D01*
X0284374Y0065740D02*
X0296270Y0065740D01*
X0295522Y0064142D02*
X0286230Y0064142D01*
X0288087Y0062543D02*
X0295104Y0062543D01*
X0295104Y0060945D02*
X0289943Y0060945D01*
X0291800Y0059346D02*
X0295569Y0059346D01*
X0296381Y0057748D02*
X0293656Y0057748D01*
X0295513Y0056149D02*
X0296678Y0056149D01*
X0294741Y0051800D02*
X0301804Y0051800D01*
X0294741Y0051800D02*
X0265961Y0076580D01*
X0260490Y0078529D02*
X0184817Y0078529D01*
X0184762Y0080127D02*
X0261306Y0080127D01*
X0260813Y0081726D02*
X0185147Y0081726D01*
X0185147Y0083324D02*
X0260161Y0083324D01*
X0260161Y0084923D02*
X0185147Y0084923D01*
X0185147Y0086521D02*
X0260540Y0086521D01*
X0261425Y0088120D02*
X0185035Y0088120D01*
X0183925Y0089718D02*
X0263515Y0089718D01*
X0260161Y0076930D02*
X0185147Y0076930D01*
X0185108Y0075332D02*
X0260200Y0075332D01*
X0260862Y0073733D02*
X0184446Y0073733D01*
X0179347Y0068706D02*
X0190048Y0068706D01*
X0252954Y0006800D01*
X0316954Y0006800D01*
X0330954Y0019800D01*
X0330954Y0071800D01*
X0320954Y0081800D01*
X0311804Y0081800D01*
X0316558Y0086521D02*
X0361493Y0086521D01*
X0361493Y0084923D02*
X0323205Y0084923D01*
X0324804Y0083324D02*
X0361493Y0083324D01*
X0361493Y0081726D02*
X0326402Y0081726D01*
X0328001Y0080127D02*
X0361493Y0080127D01*
X0361493Y0078529D02*
X0329599Y0078529D01*
X0331198Y0076930D02*
X0361493Y0076930D01*
X0361493Y0075332D02*
X0332796Y0075332D01*
X0334266Y0073733D02*
X0361493Y0073733D01*
X0361493Y0072134D02*
X0334754Y0072134D01*
X0334754Y0070536D02*
X0361493Y0070536D01*
X0361493Y0068937D02*
X0334754Y0068937D01*
X0334754Y0067339D02*
X0361493Y0067339D01*
X0361493Y0065740D02*
X0334754Y0065740D01*
X0334754Y0064142D02*
X0361493Y0064142D01*
X0361493Y0062543D02*
X0334754Y0062543D01*
X0334754Y0060945D02*
X0361493Y0060945D01*
X0361493Y0059346D02*
X0334754Y0059346D01*
X0334754Y0057748D02*
X0361493Y0057748D01*
X0361493Y0056149D02*
X0334754Y0056149D01*
X0334754Y0054551D02*
X0361493Y0054551D01*
X0361493Y0052952D02*
X0334754Y0052952D01*
X0334754Y0051354D02*
X0361493Y0051354D01*
X0361493Y0049755D02*
X0334754Y0049755D01*
X0334754Y0048157D02*
X0361493Y0048157D01*
X0361493Y0046558D02*
X0334754Y0046558D01*
X0334754Y0044960D02*
X0361493Y0044960D01*
X0361493Y0043361D02*
X0334754Y0043361D01*
X0334754Y0041763D02*
X0361493Y0041763D01*
X0361493Y0040164D02*
X0334754Y0040164D01*
X0334754Y0038566D02*
X0361493Y0038566D01*
X0361493Y0036967D02*
X0334754Y0036967D01*
X0334754Y0035369D02*
X0361493Y0035369D01*
X0361493Y0033770D02*
X0334754Y0033770D01*
X0334754Y0032172D02*
X0361493Y0032172D01*
X0361493Y0030573D02*
X0334754Y0030573D01*
X0334754Y0028975D02*
X0346502Y0028975D01*
X0343400Y0027376D02*
X0334754Y0027376D01*
X0334754Y0025778D02*
X0341686Y0025778D01*
X0340420Y0024179D02*
X0334754Y0024179D01*
X0334754Y0022581D02*
X0339497Y0022581D01*
X0338955Y0020982D02*
X0334754Y0020982D01*
X0334754Y0019384D02*
X0338527Y0019384D01*
X0338461Y0017785D02*
X0334232Y0017785D01*
X0332647Y0016187D02*
X0338461Y0016187D01*
X0338828Y0014588D02*
X0330926Y0014588D01*
X0329204Y0012990D02*
X0339256Y0012990D01*
X0340146Y0011391D02*
X0327483Y0011391D01*
X0325761Y0009793D02*
X0341211Y0009793D01*
X0342810Y0008194D02*
X0324040Y0008194D01*
X0354587Y0028975D02*
X0361493Y0028975D01*
X0361493Y0027376D02*
X0357689Y0027376D01*
X0359403Y0025778D02*
X0361493Y0025778D01*
X0361493Y0024179D02*
X0360669Y0024179D01*
X0361493Y0088120D02*
X0317532Y0088120D01*
X0318194Y0089718D02*
X0361493Y0089718D01*
X0361493Y0091317D02*
X0318504Y0091317D01*
X0318504Y0092915D02*
X0361493Y0092915D01*
X0361493Y0094514D02*
X0317932Y0094514D01*
X0316967Y0096112D02*
X0361493Y0096112D01*
X0361493Y0097711D02*
X0317190Y0097711D01*
X0318025Y0099309D02*
X0361493Y0099309D01*
X0361493Y0100908D02*
X0318504Y0100908D01*
X0318504Y0102506D02*
X0361493Y0102506D01*
X0361493Y0104105D02*
X0318102Y0104105D01*
X0317376Y0105703D02*
X0361493Y0105703D01*
X0361493Y0107302D02*
X0318421Y0107302D01*
X0318504Y0108900D02*
X0361493Y0108900D01*
X0361493Y0110499D02*
X0318504Y0110499D01*
X0318504Y0112097D02*
X0361493Y0112097D01*
X0361493Y0113696D02*
X0318504Y0113696D01*
X0318504Y0115294D02*
X0361493Y0115294D01*
X0361493Y0116893D02*
X0318175Y0116893D01*
X0316122Y0118491D02*
X0361493Y0118491D01*
X0361493Y0120090D02*
X0298668Y0120090D01*
X0306122Y0118491D02*
X0307487Y0118491D01*
X0287777Y0121688D02*
X0361493Y0121688D01*
X0361493Y0123287D02*
X0286178Y0123287D01*
X0284580Y0124885D02*
X0361493Y0124885D01*
X0361493Y0126484D02*
X0345189Y0126484D01*
X0344614Y0125909D02*
X0346293Y0127588D01*
X0347202Y0129782D01*
X0347202Y0132156D01*
X0346293Y0134350D01*
X0344674Y0135969D01*
X0346293Y0137588D01*
X0347202Y0139782D01*
X0347202Y0142156D01*
X0346293Y0144350D01*
X0344674Y0145969D01*
X0346293Y0147588D01*
X0347202Y0149782D01*
X0347202Y0152156D01*
X0346293Y0154350D01*
X0344614Y0156029D01*
X0343195Y0156617D01*
X0343733Y0156891D01*
X0344340Y0157332D01*
X0344871Y0157863D01*
X0345312Y0158470D01*
X0345653Y0159139D01*
X0345885Y0159853D01*
X0346002Y0160594D01*
X0346002Y0160785D01*
X0341418Y0160785D01*
X0341418Y0161154D01*
X0341049Y0161154D01*
X0341049Y0165738D01*
X0340858Y0165738D01*
X0340117Y0165620D01*
X0339403Y0165388D01*
X0338734Y0165048D01*
X0338127Y0164606D01*
X0337596Y0164076D01*
X0337155Y0163469D01*
X0336814Y0162800D01*
X0336582Y0162086D01*
X0336465Y0161345D01*
X0336465Y0161154D01*
X0341049Y0161154D01*
X0341049Y0160785D01*
X0336465Y0160785D01*
X0336465Y0160594D01*
X0336582Y0159853D01*
X0336814Y0159139D01*
X0337155Y0158470D01*
X0337596Y0157863D01*
X0338127Y0157332D01*
X0338734Y0156891D01*
X0339272Y0156617D01*
X0337853Y0156029D01*
X0336174Y0154350D01*
X0335265Y0152156D01*
X0335265Y0149782D01*
X0336174Y0147588D01*
X0337793Y0145969D01*
X0336174Y0144350D01*
X0335265Y0142156D01*
X0335265Y0139782D01*
X0336174Y0137588D01*
X0337793Y0135969D01*
X0336174Y0134350D01*
X0335265Y0132156D01*
X0335265Y0129782D01*
X0336174Y0127588D01*
X0337853Y0125909D01*
X0340046Y0125001D01*
X0342421Y0125001D01*
X0344614Y0125909D01*
X0346498Y0128082D02*
X0361493Y0128082D01*
X0361493Y0129681D02*
X0347160Y0129681D01*
X0347202Y0131279D02*
X0361493Y0131279D01*
X0361493Y0132878D02*
X0346903Y0132878D01*
X0346167Y0134476D02*
X0361493Y0134476D01*
X0361493Y0136075D02*
X0344780Y0136075D01*
X0346329Y0137673D02*
X0361493Y0137673D01*
X0361493Y0139272D02*
X0346991Y0139272D01*
X0347202Y0140870D02*
X0361493Y0140870D01*
X0361493Y0142469D02*
X0347073Y0142469D01*
X0346410Y0144068D02*
X0361493Y0144068D01*
X0361493Y0145666D02*
X0344977Y0145666D01*
X0345969Y0147265D02*
X0361493Y0147265D01*
X0361493Y0148863D02*
X0346821Y0148863D01*
X0347202Y0150462D02*
X0361493Y0150462D01*
X0361493Y0152060D02*
X0347202Y0152060D01*
X0346580Y0153659D02*
X0361493Y0153659D01*
X0361493Y0155257D02*
X0345386Y0155257D01*
X0343663Y0156856D02*
X0361493Y0156856D01*
X0361493Y0158454D02*
X0345300Y0158454D01*
X0345916Y0160053D02*
X0361493Y0160053D01*
X0361493Y0161651D02*
X0345953Y0161651D01*
X0346002Y0161345D02*
X0345885Y0162086D01*
X0345653Y0162800D01*
X0345312Y0163469D01*
X0344871Y0164076D01*
X0344340Y0164606D01*
X0343733Y0165048D01*
X0343064Y0165388D01*
X0342350Y0165620D01*
X0341609Y0165738D01*
X0341418Y0165738D01*
X0341418Y0161154D01*
X0346002Y0161154D01*
X0346002Y0161345D01*
X0345423Y0163250D02*
X0361493Y0163250D01*
X0361493Y0164848D02*
X0344007Y0164848D01*
X0341418Y0164848D02*
X0341049Y0164848D01*
X0341049Y0163250D02*
X0341418Y0163250D01*
X0341418Y0161651D02*
X0341049Y0161651D01*
X0338460Y0164848D02*
X0289268Y0164848D01*
X0289233Y0164883D02*
X0290852Y0166502D01*
X0291761Y0168695D01*
X0291761Y0171070D01*
X0290852Y0173264D01*
X0289233Y0174883D01*
X0290852Y0176502D01*
X0291761Y0178695D01*
X0291761Y0181070D01*
X0290852Y0183264D01*
X0289233Y0184883D01*
X0290852Y0186502D01*
X0291761Y0188695D01*
X0291761Y0191070D01*
X0290852Y0193264D01*
X0289173Y0194943D01*
X0286980Y0195851D01*
X0284605Y0195851D01*
X0282412Y0194943D01*
X0280733Y0193264D01*
X0279824Y0191070D01*
X0279824Y0188695D01*
X0280733Y0186502D01*
X0282352Y0184883D01*
X0280733Y0183264D01*
X0279824Y0181070D01*
X0279824Y0178695D01*
X0280733Y0176502D01*
X0282352Y0174883D01*
X0280733Y0173264D01*
X0279824Y0171070D01*
X0279824Y0168695D01*
X0280733Y0166502D01*
X0282352Y0164883D01*
X0280733Y0163264D01*
X0279824Y0161070D01*
X0279824Y0158695D01*
X0280733Y0156502D01*
X0282352Y0154883D01*
X0280733Y0153264D01*
X0279824Y0151070D01*
X0279824Y0148695D01*
X0280733Y0146502D01*
X0282412Y0144823D01*
X0284605Y0143914D01*
X0286980Y0143914D01*
X0289173Y0144823D01*
X0290852Y0146502D01*
X0291761Y0148695D01*
X0291761Y0151070D01*
X0290852Y0153264D01*
X0289233Y0154883D01*
X0290852Y0156502D01*
X0291761Y0158695D01*
X0291761Y0161070D01*
X0290852Y0163264D01*
X0289233Y0164883D01*
X0290797Y0166447D02*
X0361493Y0166447D01*
X0361493Y0168045D02*
X0291492Y0168045D01*
X0291761Y0169644D02*
X0361493Y0169644D01*
X0361493Y0171242D02*
X0291690Y0171242D01*
X0291028Y0172841D02*
X0361493Y0172841D01*
X0361493Y0174439D02*
X0289677Y0174439D01*
X0290388Y0176038D02*
X0361493Y0176038D01*
X0361493Y0177636D02*
X0291322Y0177636D01*
X0291761Y0179235D02*
X0361493Y0179235D01*
X0361493Y0180833D02*
X0291761Y0180833D01*
X0291197Y0182432D02*
X0361493Y0182432D01*
X0361493Y0184030D02*
X0290086Y0184030D01*
X0289979Y0185629D02*
X0361493Y0185629D01*
X0361493Y0187227D02*
X0291153Y0187227D01*
X0291761Y0188826D02*
X0361493Y0188826D01*
X0361493Y0190424D02*
X0291761Y0190424D01*
X0291366Y0192023D02*
X0361493Y0192023D01*
X0361493Y0193621D02*
X0290495Y0193621D01*
X0288504Y0195220D02*
X0361493Y0195220D01*
X0361493Y0196818D02*
X0228395Y0196818D01*
X0229993Y0195220D02*
X0283081Y0195220D01*
X0281090Y0193621D02*
X0231592Y0193621D01*
X0233190Y0192023D02*
X0280219Y0192023D01*
X0279824Y0190424D02*
X0234789Y0190424D01*
X0236387Y0188826D02*
X0279824Y0188826D01*
X0280432Y0187227D02*
X0237986Y0187227D01*
X0239584Y0185629D02*
X0281606Y0185629D01*
X0281499Y0184030D02*
X0241183Y0184030D01*
X0242782Y0182432D02*
X0280388Y0182432D01*
X0279824Y0180833D02*
X0244380Y0180833D01*
X0245979Y0179235D02*
X0279824Y0179235D01*
X0280263Y0177636D02*
X0247577Y0177636D01*
X0249176Y0176038D02*
X0281197Y0176038D01*
X0281908Y0174439D02*
X0250774Y0174439D01*
X0252373Y0172841D02*
X0280558Y0172841D01*
X0279895Y0171242D02*
X0253971Y0171242D01*
X0255570Y0169644D02*
X0279824Y0169644D01*
X0280093Y0168045D02*
X0257168Y0168045D01*
X0258767Y0166447D02*
X0280788Y0166447D01*
X0282317Y0164848D02*
X0260365Y0164848D01*
X0261964Y0163250D02*
X0280727Y0163250D01*
X0280065Y0161651D02*
X0263562Y0161651D01*
X0265161Y0160053D02*
X0279824Y0160053D01*
X0279924Y0158454D02*
X0266759Y0158454D01*
X0268358Y0156856D02*
X0280586Y0156856D01*
X0281977Y0155257D02*
X0269956Y0155257D01*
X0271555Y0153659D02*
X0281128Y0153659D01*
X0280234Y0152060D02*
X0273153Y0152060D01*
X0274752Y0150462D02*
X0279824Y0150462D01*
X0279824Y0148863D02*
X0276350Y0148863D01*
X0277949Y0147265D02*
X0280417Y0147265D01*
X0279547Y0145666D02*
X0281568Y0145666D01*
X0281146Y0144068D02*
X0284235Y0144068D01*
X0282744Y0142469D02*
X0335394Y0142469D01*
X0335265Y0140870D02*
X0283696Y0140870D01*
X0283878Y0139272D02*
X0335476Y0139272D01*
X0336138Y0137673D02*
X0283878Y0137673D01*
X0283878Y0136075D02*
X0337687Y0136075D01*
X0336300Y0134476D02*
X0283878Y0134476D01*
X0283878Y0132878D02*
X0335564Y0132878D01*
X0335265Y0131279D02*
X0283878Y0131279D01*
X0283878Y0129681D02*
X0335307Y0129681D01*
X0335969Y0128082D02*
X0283878Y0128082D01*
X0283878Y0126484D02*
X0337278Y0126484D01*
X0336057Y0144068D02*
X0287350Y0144068D01*
X0290017Y0145666D02*
X0337489Y0145666D01*
X0336497Y0147265D02*
X0291168Y0147265D01*
X0291761Y0148863D02*
X0335646Y0148863D01*
X0335265Y0150462D02*
X0291761Y0150462D01*
X0291351Y0152060D02*
X0335265Y0152060D01*
X0335887Y0153659D02*
X0290457Y0153659D01*
X0289608Y0155257D02*
X0337081Y0155257D01*
X0338803Y0156856D02*
X0290999Y0156856D01*
X0291661Y0158454D02*
X0337167Y0158454D01*
X0336551Y0160053D02*
X0291761Y0160053D01*
X0291520Y0161651D02*
X0336514Y0161651D01*
X0337044Y0163250D02*
X0290858Y0163250D01*
X0250084Y0163250D02*
X0174165Y0163250D01*
X0172575Y0164848D02*
X0248486Y0164848D01*
X0246887Y0166447D02*
X0174104Y0166447D01*
X0174799Y0168045D02*
X0245289Y0168045D01*
X0243690Y0169644D02*
X0175068Y0169644D01*
X0174997Y0171242D02*
X0242092Y0171242D01*
X0240493Y0172841D02*
X0174335Y0172841D01*
X0172984Y0174439D02*
X0238895Y0174439D01*
X0237296Y0176038D02*
X0171920Y0176038D01*
X0173307Y0177636D02*
X0235698Y0177636D01*
X0234099Y0179235D02*
X0173825Y0179235D01*
X0173777Y0180833D02*
X0232501Y0180833D01*
X0230902Y0182432D02*
X0173142Y0182432D01*
X0171463Y0184030D02*
X0229304Y0184030D01*
X0227705Y0185629D02*
X0173286Y0185629D01*
X0174460Y0187227D02*
X0226107Y0187227D01*
X0224508Y0188826D02*
X0175068Y0188826D01*
X0175581Y0190424D02*
X0222910Y0190424D01*
X0221311Y0192023D02*
X0177179Y0192023D01*
X0178778Y0193621D02*
X0219713Y0193621D01*
X0218114Y0195220D02*
X0180376Y0195220D01*
X0181975Y0196818D02*
X0216516Y0196818D01*
X0214917Y0198417D02*
X0183574Y0198417D01*
X0185172Y0200015D02*
X0213319Y0200015D01*
X0218804Y0206409D02*
X0361493Y0206409D01*
X0361493Y0204811D02*
X0220402Y0204811D01*
X0222001Y0203212D02*
X0361493Y0203212D01*
X0361493Y0201614D02*
X0223599Y0201614D01*
X0225198Y0200015D02*
X0361493Y0200015D01*
X0361493Y0198417D02*
X0226796Y0198417D01*
X0218760Y0208008D02*
X0361493Y0208008D01*
X0361493Y0209606D02*
X0218760Y0209606D01*
X0218760Y0211205D02*
X0361493Y0211205D01*
X0361493Y0212803D02*
X0218760Y0212803D01*
X0218760Y0214402D02*
X0347924Y0214402D01*
X0344060Y0216001D02*
X0218760Y0216001D01*
X0218760Y0217599D02*
X0342066Y0217599D01*
X0340640Y0219198D02*
X0225795Y0219198D01*
X0223326Y0219198D02*
X0218760Y0219198D01*
X0218760Y0220796D02*
X0220470Y0220796D01*
X0219762Y0228789D02*
X0219359Y0228789D01*
X0217505Y0230387D02*
X0221616Y0230387D01*
X0227505Y0230387D02*
X0339154Y0230387D01*
X0338726Y0228789D02*
X0237660Y0228789D01*
X0238871Y0227190D02*
X0338461Y0227190D01*
X0338461Y0225592D02*
X0239318Y0225592D01*
X0239199Y0223993D02*
X0338629Y0223993D01*
X0339057Y0222395D02*
X0238455Y0222395D01*
X0236526Y0220796D02*
X0339717Y0220796D01*
X0339927Y0231986D02*
X0101320Y0231986D01*
X0102092Y0230387D02*
X0211616Y0230387D01*
X0209762Y0228789D02*
X0102521Y0228789D01*
X0102785Y0227190D02*
X0208946Y0227190D01*
X0208592Y0225592D02*
X0102785Y0225592D01*
X0102618Y0223993D02*
X0208592Y0223993D01*
X0209240Y0222395D02*
X0102189Y0222395D01*
X0101529Y0220796D02*
X0210360Y0220796D01*
X0210360Y0219198D02*
X0100606Y0219198D01*
X0099180Y0217599D02*
X0210360Y0217599D01*
X0210360Y0216001D02*
X0097187Y0216001D01*
X0093323Y0214402D02*
X0210360Y0214402D01*
X0210360Y0212803D02*
X0079754Y0212803D01*
X0079754Y0211205D02*
X0210360Y0211205D01*
X0210360Y0209606D02*
X0079754Y0209606D01*
X0079754Y0208008D02*
X0181285Y0208008D01*
X0179687Y0206409D02*
X0137378Y0206409D01*
X0139203Y0204811D02*
X0178088Y0204811D01*
X0176490Y0203212D02*
X0152645Y0203212D01*
X0154514Y0201614D02*
X0174891Y0201614D01*
X0173293Y0200015D02*
X0156113Y0200015D01*
X0157711Y0198417D02*
X0171694Y0198417D01*
X0170096Y0196818D02*
X0159310Y0196818D01*
X0160479Y0195220D02*
X0166388Y0195220D01*
X0164398Y0193621D02*
X0160754Y0193621D01*
X0160754Y0192023D02*
X0163526Y0192023D01*
X0163131Y0190424D02*
X0160754Y0190424D01*
X0160754Y0188826D02*
X0163131Y0188826D01*
X0163739Y0187227D02*
X0160754Y0187227D01*
X0160754Y0185629D02*
X0164913Y0185629D01*
X0166736Y0184030D02*
X0160754Y0184030D01*
X0160754Y0182432D02*
X0165057Y0182432D01*
X0164422Y0180833D02*
X0160754Y0180833D01*
X0160754Y0179235D02*
X0164374Y0179235D01*
X0164892Y0177636D02*
X0160754Y0177636D01*
X0160754Y0176038D02*
X0166279Y0176038D01*
X0165215Y0174439D02*
X0160754Y0174439D01*
X0161287Y0172841D02*
X0163865Y0172841D01*
X0163202Y0171242D02*
X0162886Y0171242D01*
X0156933Y0166447D02*
X0146191Y0166447D01*
X0145701Y0164848D02*
X0158532Y0164848D01*
X0160130Y0163250D02*
X0146987Y0163250D01*
X0147649Y0161651D02*
X0161957Y0161651D01*
X0163131Y0160053D02*
X0147674Y0160053D01*
X0147359Y0158454D02*
X0163231Y0158454D01*
X0163893Y0156856D02*
X0146600Y0156856D01*
X0145292Y0155257D02*
X0165284Y0155257D01*
X0155335Y0168045D02*
X0147190Y0168045D01*
X0147674Y0169644D02*
X0153736Y0169644D01*
X0153154Y0171242D02*
X0147674Y0171242D01*
X0147156Y0172841D02*
X0153154Y0172841D01*
X0153154Y0174439D02*
X0146110Y0174439D01*
X0145782Y0176038D02*
X0153154Y0176038D01*
X0153154Y0177636D02*
X0147020Y0177636D01*
X0147674Y0179235D02*
X0153154Y0179235D01*
X0153154Y0180833D02*
X0147674Y0180833D01*
X0147326Y0182432D02*
X0153154Y0182432D01*
X0153154Y0184030D02*
X0146519Y0184030D01*
X0145373Y0185629D02*
X0153154Y0185629D01*
X0153154Y0187227D02*
X0146851Y0187227D01*
X0147513Y0188826D02*
X0153154Y0188826D01*
X0153154Y0190424D02*
X0147674Y0190424D01*
X0147495Y0192023D02*
X0153154Y0192023D01*
X0151759Y0193621D02*
X0146833Y0193621D01*
X0145329Y0195220D02*
X0150160Y0195220D01*
X0141137Y0203212D02*
X0140005Y0203212D01*
X0131388Y0206409D02*
X0127378Y0206409D01*
X0129203Y0204811D02*
X0129564Y0204811D01*
X0130314Y0196818D02*
X0128452Y0196818D01*
X0131146Y0195220D02*
X0079754Y0195220D01*
X0079754Y0196818D02*
X0090314Y0196818D01*
X0089071Y0198417D02*
X0079754Y0198417D01*
X0079754Y0200015D02*
X0088415Y0200015D01*
X0088415Y0201614D02*
X0079754Y0201614D01*
X0079754Y0203212D02*
X0088761Y0203212D01*
X0089564Y0204811D02*
X0079754Y0204811D01*
X0079754Y0206409D02*
X0091388Y0206409D01*
X0097378Y0206409D02*
X0101388Y0206409D01*
X0099564Y0204811D02*
X0099203Y0204811D01*
X0098452Y0196818D02*
X0100314Y0196818D01*
X0108452Y0196818D02*
X0112459Y0196818D01*
X0114199Y0196818D02*
X0114567Y0196818D01*
X0114567Y0198417D02*
X0114199Y0198417D01*
X0114199Y0200015D02*
X0114567Y0200015D01*
X0114567Y0201614D02*
X0114199Y0201614D01*
X0114199Y0203212D02*
X0114567Y0203212D01*
X0114567Y0204811D02*
X0114199Y0204811D01*
X0111261Y0204811D02*
X0109203Y0204811D01*
X0110005Y0203212D02*
X0110062Y0203212D01*
X0107378Y0206409D02*
X0121388Y0206409D01*
X0119564Y0204811D02*
X0117506Y0204811D01*
X0118704Y0203212D02*
X0118761Y0203212D01*
X0119071Y0198417D02*
X0118263Y0198417D01*
X0116307Y0196818D02*
X0120314Y0196818D01*
X0126204Y0190424D02*
X0079754Y0190424D01*
X0079754Y0188826D02*
X0124606Y0188826D01*
X0123007Y0187227D02*
X0079754Y0187227D01*
X0079754Y0185629D02*
X0121409Y0185629D01*
X0119810Y0184030D02*
X0079754Y0184030D01*
X0079754Y0182432D02*
X0118212Y0182432D01*
X0116613Y0180833D02*
X0079754Y0180833D01*
X0079754Y0179235D02*
X0115015Y0179235D01*
X0113416Y0177636D02*
X0079754Y0177636D01*
X0079754Y0176038D02*
X0111818Y0176038D01*
X0111154Y0174439D02*
X0079754Y0174439D01*
X0079754Y0172841D02*
X0111154Y0172841D01*
X0111154Y0171242D02*
X0079754Y0171242D01*
X0079754Y0169644D02*
X0111154Y0169644D01*
X0111154Y0168045D02*
X0079754Y0168045D01*
X0079754Y0166447D02*
X0110227Y0166447D01*
X0108628Y0164848D02*
X0079754Y0164848D01*
X0079754Y0163250D02*
X0107030Y0163250D01*
X0105431Y0161651D02*
X0079754Y0161651D01*
X0079754Y0160053D02*
X0103833Y0160053D01*
X0102234Y0158454D02*
X0079754Y0158454D01*
X0079754Y0156856D02*
X0100636Y0156856D01*
X0099037Y0155257D02*
X0079754Y0155257D01*
X0079754Y0153659D02*
X0097439Y0153659D01*
X0095840Y0152060D02*
X0079754Y0152060D01*
X0079754Y0150462D02*
X0094241Y0150462D01*
X0092643Y0148863D02*
X0079754Y0148863D01*
X0079754Y0147265D02*
X0091044Y0147265D01*
X0089446Y0145666D02*
X0079754Y0145666D01*
X0079754Y0144068D02*
X0087847Y0144068D01*
X0086249Y0142469D02*
X0079754Y0142469D01*
X0079754Y0140870D02*
X0084650Y0140870D01*
X0083340Y0139272D02*
X0079754Y0139272D01*
X0079754Y0137673D02*
X0082965Y0137673D01*
X0082965Y0136075D02*
X0079754Y0136075D01*
X0079754Y0134476D02*
X0082965Y0134476D01*
X0082965Y0132878D02*
X0079754Y0132878D01*
X0079754Y0131279D02*
X0082965Y0131279D01*
X0082965Y0129681D02*
X0079754Y0129681D01*
X0079754Y0128082D02*
X0082965Y0128082D01*
X0082965Y0126484D02*
X0079754Y0126484D01*
X0079754Y0124885D02*
X0082965Y0124885D01*
X0082965Y0123287D02*
X0079754Y0123287D01*
X0079754Y0121688D02*
X0082965Y0121688D01*
X0082965Y0120090D02*
X0079754Y0120090D01*
X0079754Y0118491D02*
X0082965Y0118491D01*
X0082965Y0116893D02*
X0079754Y0116893D01*
X0079754Y0115294D02*
X0082965Y0115294D01*
X0082965Y0113696D02*
X0079754Y0113696D01*
X0079754Y0112097D02*
X0082965Y0112097D01*
X0082965Y0110499D02*
X0079754Y0110499D01*
X0079754Y0108900D02*
X0082965Y0108900D01*
X0082965Y0107302D02*
X0079754Y0107302D01*
X0079754Y0105703D02*
X0082965Y0105703D01*
X0082965Y0104105D02*
X0079754Y0104105D01*
X0079754Y0102506D02*
X0082965Y0102506D01*
X0082965Y0100908D02*
X0079754Y0100908D01*
X0079754Y0099309D02*
X0082965Y0099309D01*
X0082965Y0097711D02*
X0079754Y0097711D01*
X0079754Y0096112D02*
X0082965Y0096112D01*
X0082965Y0094514D02*
X0079754Y0094514D01*
X0079754Y0092915D02*
X0082965Y0092915D01*
X0082965Y0091317D02*
X0079754Y0091317D01*
X0079754Y0089718D02*
X0082965Y0089718D01*
X0082965Y0088120D02*
X0079754Y0088120D01*
X0079754Y0086521D02*
X0082965Y0086521D01*
X0082965Y0084923D02*
X0079754Y0084923D01*
X0079754Y0083324D02*
X0082965Y0083324D01*
X0082965Y0081726D02*
X0079754Y0081726D01*
X0079754Y0080127D02*
X0082965Y0080127D01*
X0082965Y0078529D02*
X0079754Y0078529D01*
X0079754Y0076930D02*
X0082965Y0076930D01*
X0083179Y0075332D02*
X0079754Y0075332D01*
X0079754Y0073733D02*
X0084261Y0073733D01*
X0085860Y0072134D02*
X0079754Y0072134D01*
X0079754Y0070536D02*
X0087458Y0070536D01*
X0089057Y0068937D02*
X0079754Y0068937D01*
X0079754Y0067339D02*
X0090655Y0067339D01*
X0092254Y0065740D02*
X0079754Y0065740D01*
X0079754Y0064142D02*
X0093852Y0064142D01*
X0095451Y0062543D02*
X0079754Y0062543D01*
X0079754Y0060945D02*
X0097049Y0060945D01*
X0098648Y0059346D02*
X0079754Y0059346D01*
X0079754Y0057748D02*
X0100246Y0057748D01*
X0103002Y0065740D02*
X0126270Y0065740D01*
X0126790Y0067339D02*
X0101403Y0067339D01*
X0099805Y0068937D02*
X0125738Y0068937D01*
X0125104Y0070536D02*
X0098206Y0070536D01*
X0096608Y0072134D02*
X0125104Y0072134D01*
X0125353Y0073733D02*
X0095009Y0073733D01*
X0093411Y0075332D02*
X0126015Y0075332D01*
X0127199Y0076930D02*
X0091812Y0076930D01*
X0090565Y0078529D02*
X0125907Y0078529D01*
X0125245Y0080127D02*
X0090565Y0080127D01*
X0090565Y0081726D02*
X0125104Y0081726D01*
X0125184Y0083324D02*
X0090565Y0083324D01*
X0090565Y0084923D02*
X0125846Y0084923D01*
X0127050Y0086521D02*
X0090565Y0086521D01*
X0090565Y0088120D02*
X0126077Y0088120D01*
X0125415Y0089718D02*
X0090565Y0089718D01*
X0090565Y0091317D02*
X0125104Y0091317D01*
X0125104Y0092915D02*
X0090565Y0092915D01*
X0090565Y0094514D02*
X0125676Y0094514D01*
X0126641Y0096112D02*
X0090565Y0096112D01*
X0090565Y0097711D02*
X0126418Y0097711D01*
X0125584Y0099309D02*
X0090565Y0099309D01*
X0090565Y0100908D02*
X0125104Y0100908D01*
X0125104Y0102506D02*
X0090565Y0102506D01*
X0090565Y0104105D02*
X0125507Y0104105D01*
X0126232Y0105703D02*
X0090565Y0105703D01*
X0090565Y0107302D02*
X0126487Y0107302D01*
X0126304Y0108900D02*
X0090565Y0108900D01*
X0090565Y0110499D02*
X0126304Y0110499D01*
X0126304Y0112000D02*
X0131604Y0112000D01*
X0131604Y0117300D01*
X0127867Y0117300D01*
X0127410Y0117177D01*
X0126999Y0116940D01*
X0126664Y0116605D01*
X0126427Y0116195D01*
X0126304Y0115737D01*
X0126304Y0112000D01*
X0126304Y0112097D02*
X0090565Y0112097D01*
X0090565Y0113696D02*
X0126304Y0113696D01*
X0126304Y0115294D02*
X0090565Y0115294D01*
X0090565Y0116893D02*
X0126952Y0116893D01*
X0131604Y0116893D02*
X0132004Y0116893D01*
X0132004Y0115294D02*
X0131604Y0115294D01*
X0131604Y0113696D02*
X0132004Y0113696D01*
X0132004Y0112097D02*
X0131604Y0112097D01*
X0137487Y0118491D02*
X0090565Y0118491D01*
X0090565Y0126484D02*
X0090648Y0126484D01*
X0098118Y0126484D02*
X0100648Y0126484D01*
X0104383Y0131190D02*
X0104954Y0131761D01*
X0104954Y0135800D01*
X0114954Y0145800D01*
X0124954Y0145800D01*
X0128118Y0126484D02*
X0130648Y0126484D01*
X0120648Y0126484D02*
X0118118Y0126484D01*
X0110648Y0126484D02*
X0108118Y0126484D01*
X0148194Y0089718D02*
X0174769Y0089718D01*
X0173658Y0088120D02*
X0147532Y0088120D01*
X0146558Y0086521D02*
X0173547Y0086521D01*
X0173547Y0084923D02*
X0147763Y0084923D01*
X0148425Y0083324D02*
X0173547Y0083324D01*
X0173547Y0081726D02*
X0148504Y0081726D01*
X0148363Y0080127D02*
X0173932Y0080127D01*
X0173876Y0078529D02*
X0147701Y0078529D01*
X0146410Y0076930D02*
X0173547Y0076930D01*
X0173586Y0075332D02*
X0147594Y0075332D01*
X0148256Y0073733D02*
X0174248Y0073733D01*
X0174573Y0072134D02*
X0148504Y0072134D01*
X0148504Y0070536D02*
X0173827Y0070536D01*
X0173547Y0068937D02*
X0147871Y0068937D01*
X0146819Y0067339D02*
X0173635Y0067339D01*
X0174297Y0065740D02*
X0147339Y0065740D01*
X0148086Y0064142D02*
X0174455Y0064142D01*
X0173778Y0062543D02*
X0148504Y0062543D01*
X0148504Y0060945D02*
X0173547Y0060945D01*
X0173684Y0059346D02*
X0148040Y0059346D01*
X0147227Y0057748D02*
X0174346Y0057748D01*
X0174391Y0056149D02*
X0146930Y0056149D01*
X0147917Y0054551D02*
X0173729Y0054551D01*
X0173547Y0052952D02*
X0148504Y0052952D01*
X0148504Y0051354D02*
X0173733Y0051354D01*
X0174395Y0049755D02*
X0148209Y0049755D01*
X0147547Y0048157D02*
X0174342Y0048157D01*
X0173680Y0046558D02*
X0146521Y0046558D01*
X0147748Y0044960D02*
X0173547Y0044960D01*
X0173782Y0043361D02*
X0148410Y0043361D01*
X0148504Y0041763D02*
X0174465Y0041763D01*
X0174293Y0040164D02*
X0148379Y0040164D01*
X0147717Y0038566D02*
X0173631Y0038566D01*
X0173547Y0036967D02*
X0146447Y0036967D01*
X0147578Y0035369D02*
X0173831Y0035369D01*
X0174584Y0033770D02*
X0148240Y0033770D01*
X0148504Y0032172D02*
X0174244Y0032172D01*
X0173582Y0030573D02*
X0148504Y0030573D01*
X0147886Y0028975D02*
X0173547Y0028975D01*
X0173881Y0027376D02*
X0146856Y0027376D01*
X0147302Y0025778D02*
X0174702Y0025778D01*
X0174195Y0024179D02*
X0148071Y0024179D01*
X0148504Y0022581D02*
X0173547Y0022581D01*
X0173547Y0020982D02*
X0148504Y0020982D01*
X0148055Y0019384D02*
X0173930Y0019384D01*
X0174821Y0017785D02*
X0147265Y0017785D01*
X0145666Y0016187D02*
X0175549Y0016187D01*
X0174848Y0014588D02*
X0102419Y0014588D01*
X0102785Y0016187D02*
X0127942Y0016187D01*
X0126344Y0017785D02*
X0102785Y0017785D01*
X0102720Y0019384D02*
X0125553Y0019384D01*
X0125104Y0020982D02*
X0102292Y0020982D01*
X0101749Y0022581D02*
X0125104Y0022581D01*
X0125538Y0024179D02*
X0100826Y0024179D01*
X0099561Y0025778D02*
X0126307Y0025778D01*
X0126753Y0027376D02*
X0097846Y0027376D01*
X0094744Y0028975D02*
X0125723Y0028975D01*
X0135666Y0016187D02*
X0137942Y0016187D01*
X0101990Y0012990D02*
X0174784Y0012990D01*
X0175303Y0011391D02*
X0101100Y0011391D01*
X0100035Y0009793D02*
X0176744Y0009793D01*
X0179347Y0009793D02*
X0179347Y0009793D01*
X0179347Y0011391D02*
X0179347Y0011391D01*
X0179347Y0012990D02*
X0179347Y0012990D01*
X0181950Y0009793D02*
X0244495Y0009793D01*
X0242871Y0011391D02*
X0183390Y0011391D01*
X0183909Y0012990D02*
X0241247Y0012990D01*
X0239622Y0014588D02*
X0183846Y0014588D01*
X0183144Y0016187D02*
X0237998Y0016187D01*
X0236374Y0017785D02*
X0183873Y0017785D01*
X0184764Y0019384D02*
X0234749Y0019384D01*
X0233125Y0020982D02*
X0185147Y0020982D01*
X0185147Y0022581D02*
X0231501Y0022581D01*
X0229876Y0024179D02*
X0184499Y0024179D01*
X0183992Y0025778D02*
X0228252Y0025778D01*
X0226628Y0027376D02*
X0184813Y0027376D01*
X0185147Y0028975D02*
X0225003Y0028975D01*
X0223379Y0030573D02*
X0185112Y0030573D01*
X0184450Y0032172D02*
X0221755Y0032172D01*
X0220130Y0033770D02*
X0184110Y0033770D01*
X0184862Y0035369D02*
X0218506Y0035369D01*
X0216882Y0036967D02*
X0185147Y0036967D01*
X0185063Y0038566D02*
X0215257Y0038566D01*
X0213633Y0040164D02*
X0184401Y0040164D01*
X0184229Y0041763D02*
X0212009Y0041763D01*
X0210384Y0043361D02*
X0184911Y0043361D01*
X0185147Y0044960D02*
X0208760Y0044960D01*
X0207136Y0046558D02*
X0185014Y0046558D01*
X0184352Y0048157D02*
X0205511Y0048157D01*
X0203887Y0049755D02*
X0184298Y0049755D01*
X0184960Y0051354D02*
X0202263Y0051354D01*
X0200638Y0052952D02*
X0185147Y0052952D01*
X0184965Y0054551D02*
X0199014Y0054551D01*
X0197390Y0056149D02*
X0184303Y0056149D01*
X0184347Y0057748D02*
X0195765Y0057748D01*
X0194141Y0059346D02*
X0185010Y0059346D01*
X0185147Y0060945D02*
X0192517Y0060945D01*
X0190892Y0062543D02*
X0184916Y0062543D01*
X0184239Y0064142D02*
X0189268Y0064142D01*
X0195230Y0068937D02*
X0260161Y0068937D01*
X0260249Y0067339D02*
X0196855Y0067339D01*
X0198479Y0065740D02*
X0260911Y0065740D01*
X0261069Y0064142D02*
X0200103Y0064142D01*
X0201728Y0062543D02*
X0260392Y0062543D01*
X0260161Y0060945D02*
X0203352Y0060945D01*
X0204976Y0059346D02*
X0260298Y0059346D01*
X0260960Y0057748D02*
X0206601Y0057748D01*
X0208225Y0056149D02*
X0261005Y0056149D01*
X0260343Y0054551D02*
X0209849Y0054551D01*
X0211474Y0052952D02*
X0260161Y0052952D01*
X0260347Y0051354D02*
X0213098Y0051354D01*
X0214722Y0049755D02*
X0261010Y0049755D01*
X0260956Y0048157D02*
X0216347Y0048157D01*
X0217971Y0046558D02*
X0260294Y0046558D01*
X0260161Y0044960D02*
X0219595Y0044960D01*
X0221220Y0043361D02*
X0260396Y0043361D01*
X0261079Y0041763D02*
X0222844Y0041763D01*
X0224468Y0040164D02*
X0260907Y0040164D01*
X0260245Y0038566D02*
X0226093Y0038566D01*
X0227717Y0036967D02*
X0260161Y0036967D01*
X0260446Y0035369D02*
X0229341Y0035369D01*
X0230966Y0033770D02*
X0261198Y0033770D01*
X0260858Y0032172D02*
X0232590Y0032172D01*
X0234214Y0030573D02*
X0260196Y0030573D01*
X0260161Y0028975D02*
X0235839Y0028975D01*
X0237463Y0027376D02*
X0260495Y0027376D01*
X0261316Y0025778D02*
X0239087Y0025778D01*
X0240712Y0024179D02*
X0260809Y0024179D01*
X0260161Y0022581D02*
X0242336Y0022581D01*
X0243960Y0020982D02*
X0260161Y0020982D01*
X0260544Y0019384D02*
X0245585Y0019384D01*
X0247209Y0017785D02*
X0261435Y0017785D01*
X0260760Y0016187D02*
X0248833Y0016187D01*
X0250458Y0014588D02*
X0260161Y0014588D01*
X0260161Y0012990D02*
X0252082Y0012990D01*
X0253706Y0011391D02*
X0260593Y0011391D01*
X0246120Y0008194D02*
X0098437Y0008194D01*
X0191705Y0072134D02*
X0261188Y0072134D01*
X0260441Y0070536D02*
X0193606Y0070536D01*
X0127803Y0192023D02*
X0079754Y0192023D01*
X0079754Y0193621D02*
X0129401Y0193621D01*
X0110503Y0198417D02*
X0109695Y0198417D01*
X0088081Y0214402D02*
X0079754Y0214402D01*
X0079754Y0216001D02*
X0084217Y0216001D01*
X0082224Y0217599D02*
X0079754Y0217599D01*
X0079754Y0219198D02*
X0080798Y0219198D01*
X0079875Y0220796D02*
X0079754Y0220796D01*
X0228651Y0220796D02*
X0232595Y0220796D01*
X0234376Y0220796D02*
X0234744Y0220796D01*
X0234744Y0222395D02*
X0234376Y0222395D01*
X0234376Y0223993D02*
X0234744Y0223993D01*
X0234744Y0225592D02*
X0234376Y0225592D01*
X0234376Y0227190D02*
X0234744Y0227190D01*
X0234744Y0228789D02*
X0234376Y0228789D01*
X0231461Y0228789D02*
X0229359Y0228789D01*
X0230174Y0227190D02*
X0230250Y0227190D01*
X0229881Y0222395D02*
X0230665Y0222395D01*
X0353165Y0214402D02*
X0361493Y0214402D01*
X0361493Y0216001D02*
X0357029Y0216001D01*
X0359023Y0217599D02*
X0361493Y0217599D01*
X0361493Y0219198D02*
X0360449Y0219198D01*
X0361372Y0220796D02*
X0361493Y0220796D01*
D16*
X0124954Y0145800D03*
D17*
X0169100Y0189883D02*
X0183930Y0204713D01*
X0214560Y0204713D01*
X0279678Y0139595D01*
X0279678Y0123847D01*
X0287552Y0115973D01*
X0297631Y0115973D01*
X0301804Y0111800D01*
X0214560Y0204713D02*
X0214560Y0225146D01*
M02*
