G75*
%MOIN*%
%OFA0B0*%
%FSLAX25Y25*%
%IPPOS*%
%LPD*%
%AMOC8*
5,1,8,0,0,1.08239X$1,22.5*
%
%ADD10R,0.07400X0.07400*%
%ADD11C,0.07400*%
%ADD12C,0.05937*%
%ADD13R,0.04331X0.05512*%
%ADD14R,0.05512X0.04331*%
%ADD15C,0.05600*%
%ADD16R,0.05600X0.05600*%
%ADD17C,0.02400*%
%ADD18C,0.01600*%
%ADD19C,0.01200*%
%ADD20R,0.04356X0.04356*%
D10*
X0131804Y0111800D03*
X0141804Y0111800D03*
X0301804Y0111800D03*
X0311804Y0111800D03*
D11*
X0311804Y0101800D03*
X0301804Y0101800D03*
X0301804Y0091800D03*
X0311804Y0091800D03*
X0311804Y0081800D03*
X0301804Y0081800D03*
X0301804Y0071800D03*
X0311804Y0071800D03*
X0311804Y0061800D03*
X0301804Y0061800D03*
X0301804Y0051800D03*
X0311804Y0051800D03*
X0311804Y0041800D03*
X0301804Y0041800D03*
X0301804Y0031800D03*
X0311804Y0031800D03*
X0311804Y0021800D03*
X0301804Y0021800D03*
X0141804Y0021800D03*
X0131804Y0021800D03*
X0131804Y0031800D03*
X0131804Y0041800D03*
X0131804Y0051800D03*
X0131804Y0061800D03*
X0131804Y0071800D03*
X0131804Y0081800D03*
X0131804Y0091800D03*
X0131804Y0101800D03*
X0141804Y0101800D03*
X0141804Y0091800D03*
X0141804Y0081800D03*
X0141804Y0071800D03*
X0141804Y0061800D03*
X0141804Y0051800D03*
X0141804Y0041800D03*
X0141804Y0031800D03*
D12*
X0134383Y0131190D03*
X0124383Y0131190D03*
X0114383Y0131190D03*
X0104383Y0131190D03*
X0094383Y0131190D03*
X0141706Y0140402D03*
X0141706Y0150402D03*
X0141706Y0160402D03*
X0141706Y0170402D03*
X0141706Y0180402D03*
X0141706Y0190402D03*
X0134383Y0201190D03*
X0124383Y0201190D03*
X0114383Y0201190D03*
X0104383Y0201190D03*
X0094383Y0201190D03*
X0169100Y0189883D03*
X0169100Y0179883D03*
X0169100Y0169883D03*
X0169100Y0159883D03*
X0214560Y0225146D03*
X0224560Y0225146D03*
X0234560Y0225146D03*
X0285793Y0189883D03*
X0285793Y0179883D03*
X0285793Y0169883D03*
X0285793Y0159883D03*
X0285793Y0149883D03*
X0341233Y0150969D03*
X0341233Y0140969D03*
X0341233Y0130969D03*
X0341233Y0160969D03*
D13*
X0230434Y0155595D03*
X0222560Y0155595D03*
X0222560Y0139847D03*
X0230434Y0139847D03*
X0230434Y0173343D03*
X0222560Y0173343D03*
D14*
X0094639Y0171091D03*
X0094639Y0163217D03*
D15*
X0179347Y0076580D03*
X0179347Y0068706D03*
X0179347Y0060831D03*
X0179347Y0052957D03*
X0179347Y0045083D03*
X0179347Y0037209D03*
X0179347Y0029335D03*
X0179347Y0021461D03*
X0179347Y0013587D03*
X0265961Y0013587D03*
X0265961Y0021461D03*
X0265961Y0029335D03*
X0265961Y0037209D03*
X0265961Y0045083D03*
X0265961Y0052957D03*
X0265961Y0060831D03*
X0265961Y0068706D03*
X0265961Y0076580D03*
X0265961Y0084454D03*
D16*
X0179347Y0084454D03*
D17*
X0179347Y0094193D01*
X0204954Y0119800D01*
X0214954Y0119800D01*
X0230954Y0135800D01*
X0230954Y0139328D01*
X0230434Y0139847D01*
X0230434Y0155595D01*
X0230434Y0162320D01*
X0228954Y0163800D01*
X0224954Y0163800D01*
X0222954Y0165800D01*
X0222954Y0172950D01*
X0222560Y0173343D01*
X0222560Y0176194D01*
X0196954Y0201800D01*
X0134993Y0201800D01*
X0134383Y0201190D01*
X0134383Y0202213D01*
X0122198Y0214398D01*
X0107592Y0214398D01*
X0094383Y0201190D01*
X0094383Y0171347D01*
X0094639Y0171091D01*
X0137316Y0096682D02*
X0141804Y0091800D01*
X0157080Y0091800D01*
X0205127Y0139847D01*
X0222560Y0139847D01*
X0230434Y0139847D02*
X0230434Y0136320D01*
X0246954Y0119800D01*
X0306954Y0119800D01*
X0310954Y0115800D01*
X0310954Y0112650D01*
X0311804Y0111800D01*
X0330974Y0130969D01*
X0341233Y0130969D01*
X0350544Y0171091D02*
X0319836Y0201800D01*
X0278954Y0201800D01*
X0250497Y0173343D01*
X0230434Y0173343D01*
X0241907Y0207800D02*
X0224560Y0225146D01*
X0241907Y0207800D02*
X0322954Y0207800D01*
X0358419Y0172335D01*
X0358419Y0171091D01*
D18*
X0079754Y0221005D02*
X0079754Y0022752D01*
X0081033Y0024967D01*
X0083283Y0027217D01*
X0086038Y0028808D01*
X0089111Y0029631D01*
X0092293Y0029631D01*
X0095366Y0028808D01*
X0098121Y0027217D01*
X0100371Y0024967D01*
X0101962Y0022212D01*
X0102785Y0019139D01*
X0102785Y0015957D01*
X0101962Y0012884D01*
X0100371Y0010129D01*
X0098121Y0007879D01*
X0095906Y0006600D01*
X0153611Y0006600D01*
X0144113Y0015504D01*
X0143137Y0015100D01*
X0140472Y0015100D01*
X0138009Y0016120D01*
X0136804Y0017325D01*
X0135600Y0016120D01*
X0133137Y0015100D01*
X0130472Y0015100D01*
X0128009Y0016120D01*
X0126124Y0018005D01*
X0125104Y0020467D01*
X0125104Y0023133D01*
X0126124Y0025595D01*
X0127329Y0026800D01*
X0126124Y0028005D01*
X0125104Y0030467D01*
X0125104Y0033133D01*
X0126124Y0035595D01*
X0127329Y0036800D01*
X0126124Y0038005D01*
X0125104Y0040467D01*
X0125104Y0043133D01*
X0126124Y0045595D01*
X0127329Y0046800D01*
X0126124Y0048005D01*
X0125104Y0050467D01*
X0125104Y0053133D01*
X0126124Y0055595D01*
X0127329Y0056800D01*
X0126124Y0058005D01*
X0125104Y0060467D01*
X0125104Y0063133D01*
X0126124Y0065595D01*
X0127329Y0066800D01*
X0126124Y0068005D01*
X0125104Y0070467D01*
X0125104Y0073133D01*
X0126124Y0075595D01*
X0127329Y0076800D01*
X0126124Y0078005D01*
X0125104Y0080467D01*
X0125104Y0083133D01*
X0126124Y0085595D01*
X0127329Y0086800D01*
X0126124Y0088005D01*
X0125104Y0090467D01*
X0125104Y0093082D01*
X0103769Y0093082D01*
X0103363Y0092902D01*
X0101852Y0092864D01*
X0100441Y0093408D01*
X0092276Y0101178D01*
X0092231Y0101197D01*
X0091729Y0101698D01*
X0091216Y0102186D01*
X0091196Y0102231D01*
X0091162Y0102266D01*
X0090890Y0102920D01*
X0090603Y0103568D01*
X0090602Y0103617D01*
X0090583Y0103662D01*
X0090583Y0104371D01*
X0090565Y0105079D01*
X0090583Y0105125D01*
X0090583Y0126549D01*
X0089323Y0127809D01*
X0088415Y0130003D01*
X0088415Y0132377D01*
X0089323Y0134571D01*
X0091002Y0136250D01*
X0093196Y0137158D01*
X0095570Y0137158D01*
X0097764Y0136250D01*
X0099383Y0134630D01*
X0101002Y0136250D01*
X0103196Y0137158D01*
X0105570Y0137158D01*
X0107764Y0136250D01*
X0109383Y0134630D01*
X0110583Y0135830D01*
X0110583Y0141899D01*
X0094430Y0158052D01*
X0091286Y0158052D01*
X0090184Y0158509D01*
X0089340Y0159353D01*
X0088883Y0160455D01*
X0088883Y0165979D01*
X0089340Y0167082D01*
X0089412Y0167154D01*
X0089340Y0167227D01*
X0088883Y0168329D01*
X0088883Y0173853D01*
X0089340Y0174956D01*
X0090183Y0175799D01*
X0090183Y0196949D01*
X0089323Y0197809D01*
X0088415Y0200003D01*
X0088415Y0202377D01*
X0089323Y0204571D01*
X0091002Y0206250D01*
X0093196Y0207158D01*
X0094412Y0207158D01*
X0104031Y0216778D01*
X0105213Y0217959D01*
X0106756Y0218598D01*
X0123033Y0218598D01*
X0124577Y0217959D01*
X0135378Y0207158D01*
X0135570Y0207158D01*
X0137764Y0206250D01*
X0138014Y0206000D01*
X0197789Y0206000D01*
X0199333Y0205361D01*
X0200515Y0204179D01*
X0225787Y0178907D01*
X0226425Y0178642D01*
X0226497Y0178570D01*
X0226570Y0178642D01*
X0227672Y0179099D01*
X0233196Y0179099D01*
X0234299Y0178642D01*
X0235143Y0177799D01*
X0235249Y0177543D01*
X0248758Y0177543D01*
X0274814Y0203600D01*
X0241071Y0203600D01*
X0239528Y0204239D01*
X0224589Y0219178D01*
X0223373Y0219178D01*
X0221179Y0220087D01*
X0219560Y0221706D01*
X0217941Y0220087D01*
X0215747Y0219178D01*
X0213373Y0219178D01*
X0211179Y0220087D01*
X0209500Y0221766D01*
X0208592Y0223959D01*
X0208592Y0226334D01*
X0209500Y0228527D01*
X0211179Y0230206D01*
X0213373Y0231115D01*
X0215747Y0231115D01*
X0217941Y0230206D01*
X0219560Y0228587D01*
X0221179Y0230206D01*
X0223373Y0231115D01*
X0225747Y0231115D01*
X0227941Y0230206D01*
X0229620Y0228527D01*
X0230208Y0227108D01*
X0230482Y0227646D01*
X0230923Y0228253D01*
X0231454Y0228784D01*
X0232061Y0229225D01*
X0232730Y0229566D01*
X0233444Y0229798D01*
X0234185Y0229915D01*
X0234376Y0229915D01*
X0234376Y0225331D01*
X0234744Y0225331D01*
X0234744Y0229915D01*
X0234936Y0229915D01*
X0235677Y0229798D01*
X0236391Y0229566D01*
X0237059Y0229225D01*
X0237667Y0228784D01*
X0238197Y0228253D01*
X0238639Y0227646D01*
X0238979Y0226977D01*
X0239211Y0226263D01*
X0239329Y0225522D01*
X0239329Y0225331D01*
X0234745Y0225331D01*
X0234745Y0224962D01*
X0239329Y0224962D01*
X0239329Y0224771D01*
X0239211Y0224030D01*
X0238979Y0223316D01*
X0238639Y0222647D01*
X0238197Y0222040D01*
X0237667Y0221509D01*
X0237059Y0221068D01*
X0236391Y0220727D01*
X0235677Y0220495D01*
X0235223Y0220423D01*
X0243646Y0212000D01*
X0323789Y0212000D01*
X0325333Y0211361D01*
X0326515Y0210179D01*
X0361493Y0175201D01*
X0361493Y0221005D01*
X0360214Y0218790D01*
X0357964Y0216540D01*
X0355209Y0214949D01*
X0352135Y0214126D01*
X0348954Y0214126D01*
X0345880Y0214949D01*
X0343125Y0216540D01*
X0340875Y0218790D01*
X0339284Y0221545D01*
X0338461Y0224619D01*
X0338461Y0227800D01*
X0339284Y0230873D01*
X0340640Y0233220D01*
X0100607Y0233220D01*
X0101962Y0230873D01*
X0102785Y0227800D01*
X0102785Y0224619D01*
X0101962Y0221545D01*
X0100371Y0218790D01*
X0098121Y0216540D01*
X0095366Y0214949D01*
X0092293Y0214126D01*
X0089111Y0214126D01*
X0086038Y0214949D01*
X0083283Y0216540D01*
X0081033Y0218790D01*
X0079754Y0221005D01*
X0079754Y0220796D02*
X0079875Y0220796D01*
X0079754Y0219198D02*
X0080798Y0219198D01*
X0079754Y0217599D02*
X0082224Y0217599D01*
X0084217Y0216001D02*
X0079754Y0216001D01*
X0079754Y0214402D02*
X0088081Y0214402D01*
X0093323Y0214402D02*
X0101656Y0214402D01*
X0103254Y0216001D02*
X0097187Y0216001D01*
X0099180Y0217599D02*
X0104853Y0217599D01*
X0100606Y0219198D02*
X0213326Y0219198D01*
X0215795Y0219198D02*
X0223326Y0219198D01*
X0226168Y0217599D02*
X0124937Y0217599D01*
X0126536Y0216001D02*
X0227766Y0216001D01*
X0229365Y0214402D02*
X0128134Y0214402D01*
X0129733Y0212803D02*
X0230963Y0212803D01*
X0232562Y0211205D02*
X0131331Y0211205D01*
X0132930Y0209606D02*
X0234161Y0209606D01*
X0235759Y0208008D02*
X0134528Y0208008D01*
X0137378Y0206409D02*
X0237358Y0206409D01*
X0238956Y0204811D02*
X0199883Y0204811D01*
X0201481Y0203212D02*
X0274427Y0203212D01*
X0272828Y0201614D02*
X0203080Y0201614D01*
X0204678Y0200015D02*
X0271230Y0200015D01*
X0269631Y0198417D02*
X0206277Y0198417D01*
X0207875Y0196818D02*
X0268033Y0196818D01*
X0266434Y0195220D02*
X0209474Y0195220D01*
X0211072Y0193621D02*
X0264836Y0193621D01*
X0263237Y0192023D02*
X0212671Y0192023D01*
X0214269Y0190424D02*
X0261639Y0190424D01*
X0260040Y0188826D02*
X0215868Y0188826D01*
X0217466Y0187227D02*
X0258442Y0187227D01*
X0256843Y0185629D02*
X0219065Y0185629D01*
X0220663Y0184030D02*
X0255245Y0184030D01*
X0253646Y0182432D02*
X0222262Y0182432D01*
X0223860Y0180833D02*
X0252048Y0180833D01*
X0250449Y0179235D02*
X0225459Y0179235D01*
X0217395Y0175419D02*
X0217395Y0169991D01*
X0217852Y0168888D01*
X0218696Y0168044D01*
X0218754Y0168020D01*
X0218754Y0164965D01*
X0219393Y0163421D01*
X0220575Y0162239D01*
X0221463Y0161351D01*
X0219798Y0161351D01*
X0218696Y0160894D01*
X0217852Y0160051D01*
X0217580Y0159395D01*
X0181993Y0159395D01*
X0180597Y0158817D01*
X0171180Y0149400D01*
X0147674Y0149400D01*
X0147674Y0151590D01*
X0146766Y0153783D01*
X0145147Y0155402D01*
X0146766Y0157021D01*
X0147674Y0159215D01*
X0147674Y0161590D01*
X0146766Y0163783D01*
X0145147Y0165402D01*
X0146766Y0167021D01*
X0147674Y0169215D01*
X0147674Y0171590D01*
X0146766Y0173783D01*
X0145147Y0175402D01*
X0146766Y0177021D01*
X0147674Y0179215D01*
X0147674Y0181590D01*
X0146766Y0183783D01*
X0145147Y0185402D01*
X0146766Y0187021D01*
X0147674Y0189215D01*
X0147674Y0191590D01*
X0146766Y0193783D01*
X0145087Y0195462D01*
X0142893Y0196371D01*
X0140519Y0196371D01*
X0138325Y0195462D01*
X0136646Y0193783D01*
X0135737Y0191590D01*
X0135737Y0189215D01*
X0136646Y0187021D01*
X0138265Y0185402D01*
X0136646Y0183783D01*
X0135737Y0181590D01*
X0135737Y0179215D01*
X0136646Y0177021D01*
X0138265Y0175402D01*
X0136646Y0173783D01*
X0135737Y0171590D01*
X0135737Y0169215D01*
X0136646Y0167021D01*
X0138265Y0165402D01*
X0136646Y0163783D01*
X0135737Y0161590D01*
X0135737Y0159215D01*
X0136646Y0157021D01*
X0138265Y0155402D01*
X0136646Y0153783D01*
X0135737Y0151590D01*
X0135737Y0149400D01*
X0129790Y0149400D01*
X0129675Y0149677D01*
X0128831Y0150521D01*
X0127729Y0150978D01*
X0122179Y0150978D01*
X0121077Y0150521D01*
X0120233Y0149677D01*
X0119776Y0148575D01*
X0119776Y0143025D01*
X0120233Y0141923D01*
X0121077Y0141079D01*
X0122179Y0140622D01*
X0127729Y0140622D01*
X0128831Y0141079D01*
X0129675Y0141923D01*
X0129790Y0142200D01*
X0135990Y0142200D01*
X0135737Y0141590D01*
X0135737Y0139215D01*
X0136646Y0137021D01*
X0137173Y0136494D01*
X0135570Y0137158D01*
X0133196Y0137158D01*
X0131002Y0136250D01*
X0129383Y0134630D01*
X0127764Y0136250D01*
X0125570Y0137158D01*
X0123196Y0137158D01*
X0121002Y0136250D01*
X0119383Y0134630D01*
X0118183Y0135830D01*
X0118183Y0144229D01*
X0117605Y0145626D01*
X0116536Y0146695D01*
X0100395Y0162835D01*
X0100395Y0165979D01*
X0099938Y0167082D01*
X0099866Y0167154D01*
X0099938Y0167227D01*
X0100395Y0168329D01*
X0100395Y0173853D01*
X0099938Y0174956D01*
X0099094Y0175800D01*
X0098583Y0176012D01*
X0098583Y0196949D01*
X0099383Y0197749D01*
X0101002Y0196130D01*
X0103196Y0195221D01*
X0105570Y0195221D01*
X0107764Y0196130D01*
X0109443Y0197809D01*
X0110031Y0199228D01*
X0110305Y0198691D01*
X0110746Y0198083D01*
X0111277Y0197553D01*
X0111884Y0197111D01*
X0112553Y0196771D01*
X0113266Y0196539D01*
X0114008Y0196421D01*
X0114199Y0196421D01*
X0114199Y0201005D01*
X0114567Y0201005D01*
X0114567Y0196421D01*
X0114758Y0196421D01*
X0115500Y0196539D01*
X0116214Y0196771D01*
X0116882Y0197111D01*
X0117490Y0197553D01*
X0118020Y0198083D01*
X0118461Y0198691D01*
X0118735Y0199228D01*
X0119323Y0197809D01*
X0121002Y0196130D01*
X0123196Y0195221D01*
X0125570Y0195221D01*
X0127764Y0196130D01*
X0129383Y0197749D01*
X0131002Y0196130D01*
X0133196Y0195221D01*
X0135570Y0195221D01*
X0137764Y0196130D01*
X0139234Y0197600D01*
X0195214Y0197600D01*
X0217395Y0175419D01*
X0216777Y0176038D02*
X0171920Y0176038D01*
X0172206Y0176245D02*
X0172737Y0176776D01*
X0173178Y0177383D01*
X0173519Y0178052D01*
X0173751Y0178766D01*
X0173868Y0179507D01*
X0173868Y0179698D01*
X0169284Y0179698D01*
X0169284Y0180067D01*
X0173868Y0180067D01*
X0173868Y0180258D01*
X0173751Y0180999D01*
X0173519Y0181713D01*
X0173178Y0182382D01*
X0172737Y0182989D01*
X0172206Y0183520D01*
X0171599Y0183961D01*
X0171061Y0184235D01*
X0172480Y0184823D01*
X0174159Y0186502D01*
X0175068Y0188695D01*
X0175068Y0191070D01*
X0174159Y0193264D01*
X0172480Y0194943D01*
X0170287Y0195851D01*
X0167912Y0195851D01*
X0165719Y0194943D01*
X0164040Y0193264D01*
X0163131Y0191070D01*
X0163131Y0188695D01*
X0164040Y0186502D01*
X0165719Y0184823D01*
X0167138Y0184235D01*
X0166600Y0183961D01*
X0165993Y0183520D01*
X0165462Y0182989D01*
X0165021Y0182382D01*
X0164680Y0181713D01*
X0164449Y0180999D01*
X0164331Y0180258D01*
X0164331Y0180067D01*
X0168915Y0180067D01*
X0168915Y0179698D01*
X0164331Y0179698D01*
X0164331Y0179507D01*
X0164449Y0178766D01*
X0164680Y0178052D01*
X0165021Y0177383D01*
X0165462Y0176776D01*
X0165993Y0176245D01*
X0166600Y0175804D01*
X0167138Y0175530D01*
X0165719Y0174943D01*
X0164040Y0173264D01*
X0163131Y0171070D01*
X0163131Y0168695D01*
X0164040Y0166502D01*
X0165659Y0164883D01*
X0164040Y0163264D01*
X0163131Y0161070D01*
X0163131Y0158695D01*
X0164040Y0156502D01*
X0165719Y0154823D01*
X0167912Y0153914D01*
X0170287Y0153914D01*
X0172480Y0154823D01*
X0174159Y0156502D01*
X0175068Y0158695D01*
X0175068Y0161070D01*
X0174159Y0163264D01*
X0172540Y0164883D01*
X0174159Y0166502D01*
X0175068Y0168695D01*
X0175068Y0171070D01*
X0174159Y0173264D01*
X0172480Y0174943D01*
X0171061Y0175530D01*
X0171599Y0175804D01*
X0172206Y0176245D01*
X0173307Y0177636D02*
X0215178Y0177636D01*
X0213579Y0179235D02*
X0173825Y0179235D01*
X0173777Y0180833D02*
X0211981Y0180833D01*
X0210382Y0182432D02*
X0173142Y0182432D01*
X0171463Y0184030D02*
X0208784Y0184030D01*
X0207185Y0185629D02*
X0173286Y0185629D01*
X0174460Y0187227D02*
X0205587Y0187227D01*
X0203988Y0188826D02*
X0175068Y0188826D01*
X0175068Y0190424D02*
X0202390Y0190424D01*
X0200791Y0192023D02*
X0174673Y0192023D01*
X0173802Y0193621D02*
X0199193Y0193621D01*
X0197594Y0195220D02*
X0171811Y0195220D01*
X0166388Y0195220D02*
X0145329Y0195220D01*
X0146833Y0193621D02*
X0164398Y0193621D01*
X0163526Y0192023D02*
X0147495Y0192023D01*
X0147674Y0190424D02*
X0163131Y0190424D01*
X0163131Y0188826D02*
X0147513Y0188826D01*
X0146851Y0187227D02*
X0163739Y0187227D01*
X0164913Y0185629D02*
X0145373Y0185629D01*
X0146519Y0184030D02*
X0166736Y0184030D01*
X0165057Y0182432D02*
X0147326Y0182432D01*
X0147674Y0180833D02*
X0164422Y0180833D01*
X0164374Y0179235D02*
X0147674Y0179235D01*
X0147020Y0177636D02*
X0164892Y0177636D01*
X0166279Y0176038D02*
X0145782Y0176038D01*
X0146110Y0174439D02*
X0165215Y0174439D01*
X0163865Y0172841D02*
X0147156Y0172841D01*
X0147674Y0171242D02*
X0163202Y0171242D01*
X0163131Y0169644D02*
X0147674Y0169644D01*
X0147190Y0168045D02*
X0163400Y0168045D01*
X0164095Y0166447D02*
X0146191Y0166447D01*
X0145701Y0164848D02*
X0165624Y0164848D01*
X0164034Y0163250D02*
X0146987Y0163250D01*
X0147649Y0161651D02*
X0163372Y0161651D01*
X0163131Y0160053D02*
X0147674Y0160053D01*
X0147359Y0158454D02*
X0163231Y0158454D01*
X0163893Y0156856D02*
X0146600Y0156856D01*
X0145292Y0155257D02*
X0165284Y0155257D01*
X0172915Y0155257D02*
X0177037Y0155257D01*
X0175439Y0153659D02*
X0146817Y0153659D01*
X0147480Y0152060D02*
X0173840Y0152060D01*
X0172241Y0150462D02*
X0147674Y0150462D01*
X0138120Y0155257D02*
X0107973Y0155257D01*
X0106375Y0156856D02*
X0136812Y0156856D01*
X0136053Y0158454D02*
X0104776Y0158454D01*
X0103178Y0160053D02*
X0135737Y0160053D01*
X0135763Y0161651D02*
X0101579Y0161651D01*
X0100395Y0163250D02*
X0136425Y0163250D01*
X0137711Y0164848D02*
X0100395Y0164848D01*
X0100201Y0166447D02*
X0137221Y0166447D01*
X0136222Y0168045D02*
X0100277Y0168045D01*
X0100395Y0169644D02*
X0135737Y0169644D01*
X0135737Y0171242D02*
X0100395Y0171242D01*
X0100395Y0172841D02*
X0136256Y0172841D01*
X0137302Y0174439D02*
X0100152Y0174439D01*
X0098583Y0176038D02*
X0137630Y0176038D01*
X0136391Y0177636D02*
X0098583Y0177636D01*
X0098583Y0179235D02*
X0135737Y0179235D01*
X0135737Y0180833D02*
X0098583Y0180833D01*
X0098583Y0182432D02*
X0136086Y0182432D01*
X0136893Y0184030D02*
X0098583Y0184030D01*
X0098583Y0185629D02*
X0138039Y0185629D01*
X0136561Y0187227D02*
X0098583Y0187227D01*
X0098583Y0188826D02*
X0135899Y0188826D01*
X0135737Y0190424D02*
X0098583Y0190424D01*
X0098583Y0192023D02*
X0135917Y0192023D01*
X0136579Y0193621D02*
X0098583Y0193621D01*
X0098583Y0195220D02*
X0138083Y0195220D01*
X0138452Y0196818D02*
X0195996Y0196818D01*
X0210470Y0220796D02*
X0101529Y0220796D01*
X0102189Y0222395D02*
X0209240Y0222395D01*
X0208592Y0223993D02*
X0102618Y0223993D01*
X0102785Y0225592D02*
X0208592Y0225592D01*
X0208946Y0227190D02*
X0102785Y0227190D01*
X0102521Y0228789D02*
X0209762Y0228789D01*
X0211616Y0230387D02*
X0102092Y0230387D01*
X0101320Y0231986D02*
X0339927Y0231986D01*
X0339154Y0230387D02*
X0227505Y0230387D01*
X0229359Y0228789D02*
X0231461Y0228789D01*
X0230250Y0227190D02*
X0230174Y0227190D01*
X0234376Y0227190D02*
X0234744Y0227190D01*
X0234744Y0225592D02*
X0234376Y0225592D01*
X0234376Y0228789D02*
X0234744Y0228789D01*
X0237660Y0228789D02*
X0338726Y0228789D01*
X0338461Y0227190D02*
X0238871Y0227190D01*
X0239318Y0225592D02*
X0338461Y0225592D01*
X0338629Y0223993D02*
X0239199Y0223993D01*
X0238455Y0222395D02*
X0339057Y0222395D01*
X0339717Y0220796D02*
X0236526Y0220796D01*
X0236449Y0219198D02*
X0340640Y0219198D01*
X0342066Y0217599D02*
X0238047Y0217599D01*
X0239646Y0216001D02*
X0344060Y0216001D01*
X0347924Y0214402D02*
X0241244Y0214402D01*
X0242843Y0212803D02*
X0361493Y0212803D01*
X0361493Y0211205D02*
X0325489Y0211205D01*
X0327087Y0209606D02*
X0361493Y0209606D01*
X0361493Y0208008D02*
X0328686Y0208008D01*
X0330284Y0206409D02*
X0361493Y0206409D01*
X0361493Y0204811D02*
X0331883Y0204811D01*
X0333481Y0203212D02*
X0361493Y0203212D01*
X0361493Y0201614D02*
X0335080Y0201614D01*
X0336678Y0200015D02*
X0361493Y0200015D01*
X0361493Y0198417D02*
X0338277Y0198417D01*
X0339875Y0196818D02*
X0361493Y0196818D01*
X0361493Y0195220D02*
X0341474Y0195220D01*
X0343072Y0193621D02*
X0361493Y0193621D01*
X0361493Y0192023D02*
X0344671Y0192023D01*
X0346269Y0190424D02*
X0361493Y0190424D01*
X0361493Y0188826D02*
X0347868Y0188826D01*
X0349466Y0187227D02*
X0361493Y0187227D01*
X0361493Y0185629D02*
X0351065Y0185629D01*
X0352663Y0184030D02*
X0361493Y0184030D01*
X0361493Y0182432D02*
X0354262Y0182432D01*
X0355860Y0180833D02*
X0361493Y0180833D01*
X0361493Y0179235D02*
X0357459Y0179235D01*
X0359057Y0177636D02*
X0361493Y0177636D01*
X0361493Y0176038D02*
X0360656Y0176038D01*
X0358419Y0171091D02*
X0358419Y0049044D01*
X0319048Y0009674D01*
X0295426Y0009674D01*
X0287552Y0017548D01*
X0287552Y0025422D01*
X0291489Y0029359D01*
X0299363Y0029359D01*
X0301804Y0031800D01*
X0297329Y0036800D02*
X0296124Y0035595D01*
X0295115Y0033159D01*
X0290733Y0033159D01*
X0289337Y0032581D01*
X0288268Y0031512D01*
X0284331Y0027575D01*
X0283752Y0026178D01*
X0283752Y0016792D01*
X0284331Y0015395D01*
X0285400Y0014327D01*
X0293126Y0006600D01*
X0208270Y0006600D01*
X0260753Y0058249D01*
X0261044Y0057546D01*
X0261696Y0056894D01*
X0261044Y0056243D01*
X0260161Y0054111D01*
X0260161Y0051804D01*
X0261044Y0049672D01*
X0261696Y0049020D01*
X0261044Y0048369D01*
X0260161Y0046237D01*
X0260161Y0043930D01*
X0261044Y0041798D01*
X0261696Y0041146D01*
X0261044Y0040495D01*
X0260161Y0038363D01*
X0260161Y0036056D01*
X0261044Y0033924D01*
X0261696Y0033272D01*
X0261044Y0032621D01*
X0260161Y0030489D01*
X0260161Y0028182D01*
X0261044Y0026050D01*
X0261696Y0025398D01*
X0261044Y0024747D01*
X0260161Y0022615D01*
X0260161Y0020308D01*
X0261044Y0018176D01*
X0261696Y0017524D01*
X0261044Y0016873D01*
X0260161Y0014741D01*
X0260161Y0012434D01*
X0261044Y0010302D01*
X0262676Y0008670D01*
X0264807Y0007787D01*
X0267115Y0007787D01*
X0269246Y0008670D01*
X0270878Y0010302D01*
X0271761Y0012434D01*
X0271761Y0014741D01*
X0270878Y0016873D01*
X0270226Y0017524D01*
X0270878Y0018176D01*
X0271761Y0020308D01*
X0271761Y0022615D01*
X0270878Y0024747D01*
X0270226Y0025398D01*
X0270878Y0026050D01*
X0271761Y0028182D01*
X0271761Y0030489D01*
X0270878Y0032621D01*
X0270226Y0033272D01*
X0270878Y0033924D01*
X0271761Y0036056D01*
X0271761Y0038363D01*
X0270878Y0040495D01*
X0270226Y0041146D01*
X0270878Y0041798D01*
X0271761Y0043930D01*
X0271761Y0046237D01*
X0270878Y0048369D01*
X0270226Y0049020D01*
X0270878Y0049672D01*
X0271761Y0051804D01*
X0271761Y0054111D01*
X0270878Y0056243D01*
X0270226Y0056894D01*
X0270878Y0057546D01*
X0271761Y0059678D01*
X0271761Y0061985D01*
X0270878Y0064117D01*
X0270226Y0064768D01*
X0270878Y0065420D01*
X0271761Y0067552D01*
X0271761Y0069859D01*
X0270878Y0071991D01*
X0270226Y0072643D01*
X0270878Y0073294D01*
X0271761Y0075426D01*
X0271761Y0077733D01*
X0270878Y0079865D01*
X0270226Y0080517D01*
X0270878Y0081168D01*
X0271761Y0083300D01*
X0271761Y0085607D01*
X0270878Y0087739D01*
X0269246Y0089371D01*
X0267115Y0090254D01*
X0264807Y0090254D01*
X0262676Y0089371D01*
X0261044Y0087739D01*
X0260161Y0085607D01*
X0260161Y0083300D01*
X0261044Y0081168D01*
X0261696Y0080517D01*
X0261044Y0079865D01*
X0260161Y0077733D01*
X0260161Y0075426D01*
X0261044Y0073294D01*
X0261696Y0072643D01*
X0261044Y0071991D01*
X0260161Y0069859D01*
X0260161Y0068329D01*
X0201499Y0010600D01*
X0182862Y0010600D01*
X0183281Y0011176D01*
X0183610Y0011822D01*
X0183834Y0012510D01*
X0183947Y0013225D01*
X0183947Y0013587D01*
X0179347Y0013587D01*
X0179347Y0013587D01*
X0174747Y0013587D01*
X0174747Y0013225D01*
X0174860Y0012510D01*
X0175084Y0011822D01*
X0175413Y0011176D01*
X0175831Y0010600D01*
X0160457Y0010600D01*
X0148504Y0021805D01*
X0148504Y0023133D01*
X0147484Y0025595D01*
X0146280Y0026800D01*
X0147484Y0028005D01*
X0148504Y0030467D01*
X0148504Y0033133D01*
X0147484Y0035595D01*
X0146280Y0036800D01*
X0147484Y0038005D01*
X0148504Y0040467D01*
X0148504Y0043133D01*
X0147484Y0045595D01*
X0146280Y0046800D01*
X0147484Y0048005D01*
X0148504Y0050467D01*
X0148504Y0053133D01*
X0147484Y0055595D01*
X0146280Y0056800D01*
X0147484Y0058005D01*
X0148504Y0060467D01*
X0148504Y0063133D01*
X0147484Y0065595D01*
X0146280Y0066800D01*
X0147484Y0068005D01*
X0148504Y0070467D01*
X0148504Y0073133D01*
X0147484Y0075595D01*
X0146280Y0076800D01*
X0147484Y0078005D01*
X0148504Y0080467D01*
X0148504Y0083133D01*
X0147484Y0085595D01*
X0146280Y0086800D01*
X0147080Y0087600D01*
X0157915Y0087600D01*
X0159459Y0088239D01*
X0206867Y0135647D01*
X0217746Y0135647D01*
X0217852Y0135392D01*
X0218696Y0134548D01*
X0219798Y0134091D01*
X0223306Y0134091D01*
X0213214Y0124000D01*
X0204118Y0124000D01*
X0202575Y0123361D01*
X0201393Y0122179D01*
X0176968Y0097753D01*
X0176968Y0097753D01*
X0175786Y0096572D01*
X0175147Y0095028D01*
X0175147Y0089921D01*
X0174847Y0089797D01*
X0174004Y0088953D01*
X0173547Y0087850D01*
X0173547Y0081057D01*
X0174004Y0079954D01*
X0174331Y0079627D01*
X0173547Y0077733D01*
X0173547Y0075426D01*
X0174430Y0073294D01*
X0175081Y0072643D01*
X0174430Y0071991D01*
X0173547Y0069859D01*
X0173547Y0067552D01*
X0174430Y0065420D01*
X0175081Y0064768D01*
X0174430Y0064117D01*
X0173547Y0061985D01*
X0173547Y0059678D01*
X0174430Y0057546D01*
X0175081Y0056894D01*
X0174430Y0056243D01*
X0173547Y0054111D01*
X0173547Y0051804D01*
X0174430Y0049672D01*
X0175081Y0049020D01*
X0174430Y0048369D01*
X0173547Y0046237D01*
X0173547Y0043930D01*
X0174430Y0041798D01*
X0175081Y0041146D01*
X0174430Y0040495D01*
X0173547Y0038363D01*
X0173547Y0036056D01*
X0174430Y0033924D01*
X0175081Y0033272D01*
X0174430Y0032621D01*
X0173547Y0030489D01*
X0173547Y0028182D01*
X0174430Y0026050D01*
X0175081Y0025398D01*
X0174430Y0024747D01*
X0173547Y0022615D01*
X0173547Y0020308D01*
X0174430Y0018176D01*
X0175930Y0016676D01*
X0175838Y0016584D01*
X0175413Y0015998D01*
X0175084Y0015353D01*
X0174860Y0014665D01*
X0174747Y0013949D01*
X0174747Y0013587D01*
X0179347Y0013587D01*
X0179347Y0013587D01*
X0183947Y0013587D01*
X0183947Y0013949D01*
X0183834Y0014665D01*
X0183610Y0015353D01*
X0183281Y0015998D01*
X0182856Y0016584D01*
X0182764Y0016676D01*
X0184264Y0018176D01*
X0185147Y0020308D01*
X0185147Y0022615D01*
X0184264Y0024747D01*
X0183612Y0025398D01*
X0184264Y0026050D01*
X0185147Y0028182D01*
X0185147Y0030489D01*
X0184264Y0032621D01*
X0183612Y0033272D01*
X0184264Y0033924D01*
X0185147Y0036056D01*
X0185147Y0038363D01*
X0184264Y0040495D01*
X0183612Y0041146D01*
X0184264Y0041798D01*
X0185147Y0043930D01*
X0185147Y0046237D01*
X0184264Y0048369D01*
X0183612Y0049020D01*
X0184264Y0049672D01*
X0185147Y0051804D01*
X0185147Y0054111D01*
X0184264Y0056243D01*
X0183612Y0056894D01*
X0184264Y0057546D01*
X0185147Y0059678D01*
X0185147Y0061985D01*
X0184264Y0064117D01*
X0183612Y0064768D01*
X0184264Y0065420D01*
X0185147Y0067552D01*
X0185147Y0069859D01*
X0184264Y0071991D01*
X0183612Y0072643D01*
X0183749Y0072780D01*
X0189489Y0072780D01*
X0190886Y0073358D01*
X0191955Y0074427D01*
X0210528Y0093000D01*
X0295104Y0093000D01*
X0295104Y0090467D01*
X0296124Y0088005D01*
X0297329Y0086800D01*
X0296124Y0085595D01*
X0295104Y0083133D01*
X0295104Y0080467D01*
X0296124Y0078005D01*
X0297329Y0076800D01*
X0296124Y0075595D01*
X0295104Y0073133D01*
X0295104Y0070467D01*
X0296124Y0068005D01*
X0297329Y0066800D01*
X0296124Y0065595D01*
X0295104Y0063133D01*
X0295104Y0060467D01*
X0296124Y0058005D01*
X0297329Y0056800D01*
X0296124Y0055595D01*
X0295104Y0053133D01*
X0295104Y0050467D01*
X0296124Y0048005D01*
X0297329Y0046800D01*
X0296124Y0045595D01*
X0295104Y0043133D01*
X0295104Y0040467D01*
X0296124Y0038005D01*
X0297329Y0036800D01*
X0297162Y0036967D02*
X0271761Y0036967D01*
X0271677Y0038566D02*
X0295892Y0038566D01*
X0295230Y0040164D02*
X0271015Y0040164D01*
X0270843Y0041763D02*
X0295104Y0041763D01*
X0295199Y0043361D02*
X0271526Y0043361D01*
X0271761Y0044960D02*
X0295861Y0044960D01*
X0297087Y0046558D02*
X0271628Y0046558D01*
X0270966Y0048157D02*
X0296061Y0048157D01*
X0295399Y0049755D02*
X0270913Y0049755D01*
X0271575Y0051354D02*
X0295104Y0051354D01*
X0295104Y0052952D02*
X0271761Y0052952D01*
X0271579Y0054551D02*
X0295692Y0054551D01*
X0296678Y0056149D02*
X0270917Y0056149D01*
X0270962Y0057748D02*
X0296381Y0057748D01*
X0295569Y0059346D02*
X0271624Y0059346D01*
X0271761Y0060945D02*
X0295104Y0060945D01*
X0295104Y0062543D02*
X0271530Y0062543D01*
X0270853Y0064142D02*
X0295522Y0064142D01*
X0296270Y0065740D02*
X0271011Y0065740D01*
X0271673Y0067339D02*
X0296790Y0067339D01*
X0295738Y0068937D02*
X0271761Y0068937D01*
X0271481Y0070536D02*
X0295104Y0070536D01*
X0295104Y0072134D02*
X0270734Y0072134D01*
X0271060Y0073733D02*
X0295353Y0073733D01*
X0296015Y0075332D02*
X0271722Y0075332D01*
X0271761Y0076930D02*
X0297199Y0076930D01*
X0295907Y0078529D02*
X0271432Y0078529D01*
X0270616Y0080127D02*
X0295245Y0080127D01*
X0295104Y0081726D02*
X0271109Y0081726D01*
X0271761Y0083324D02*
X0295184Y0083324D01*
X0295846Y0084923D02*
X0271761Y0084923D01*
X0271382Y0086521D02*
X0297050Y0086521D01*
X0296077Y0088120D02*
X0270497Y0088120D01*
X0268407Y0089718D02*
X0295415Y0089718D01*
X0295104Y0091317D02*
X0208845Y0091317D01*
X0210443Y0092915D02*
X0295104Y0092915D01*
X0296426Y0100600D02*
X0208198Y0100600D01*
X0206801Y0100021D01*
X0187159Y0080380D01*
X0184866Y0080380D01*
X0185147Y0081057D01*
X0185147Y0087850D01*
X0184690Y0088953D01*
X0183846Y0089797D01*
X0183547Y0089921D01*
X0183547Y0092453D01*
X0206694Y0115600D01*
X0215789Y0115600D01*
X0217333Y0116239D01*
X0230954Y0129860D01*
X0243393Y0117421D01*
X0244575Y0116239D01*
X0246118Y0115600D01*
X0295104Y0115600D01*
X0295104Y0107503D01*
X0295561Y0106401D01*
X0296405Y0105557D01*
X0297428Y0105133D01*
X0297100Y0104683D01*
X0296707Y0103911D01*
X0296440Y0103088D01*
X0296304Y0102233D01*
X0296304Y0102000D01*
X0301604Y0102000D01*
X0301604Y0101600D01*
X0296304Y0101600D01*
X0296304Y0101367D01*
X0296426Y0100600D01*
X0296377Y0100908D02*
X0192001Y0100908D01*
X0190403Y0099309D02*
X0206089Y0099309D01*
X0204491Y0097711D02*
X0188804Y0097711D01*
X0187206Y0096112D02*
X0202892Y0096112D01*
X0201294Y0094514D02*
X0185607Y0094514D01*
X0184009Y0092915D02*
X0199695Y0092915D01*
X0198097Y0091317D02*
X0183547Y0091317D01*
X0183925Y0089718D02*
X0196498Y0089718D01*
X0194900Y0088120D02*
X0185035Y0088120D01*
X0185147Y0086521D02*
X0193301Y0086521D01*
X0191703Y0084923D02*
X0185147Y0084923D01*
X0185147Y0083324D02*
X0190104Y0083324D01*
X0188505Y0081726D02*
X0185147Y0081726D01*
X0188733Y0076580D02*
X0179347Y0076580D01*
X0180733Y0076580D01*
X0184120Y0072134D02*
X0261188Y0072134D01*
X0260862Y0073733D02*
X0191261Y0073733D01*
X0192859Y0075332D02*
X0260200Y0075332D01*
X0260161Y0076930D02*
X0194458Y0076930D01*
X0196056Y0078529D02*
X0260490Y0078529D01*
X0261306Y0080127D02*
X0197655Y0080127D01*
X0199254Y0081726D02*
X0260813Y0081726D01*
X0260161Y0083324D02*
X0200852Y0083324D01*
X0202451Y0084923D02*
X0260161Y0084923D01*
X0260540Y0086521D02*
X0204049Y0086521D01*
X0205648Y0088120D02*
X0261425Y0088120D01*
X0263515Y0089718D02*
X0207246Y0089718D01*
X0208954Y0096800D02*
X0188733Y0076580D01*
X0184867Y0070536D02*
X0260441Y0070536D01*
X0260161Y0068937D02*
X0185147Y0068937D01*
X0185059Y0067339D02*
X0259155Y0067339D01*
X0257530Y0065740D02*
X0184397Y0065740D01*
X0184239Y0064142D02*
X0255906Y0064142D01*
X0254282Y0062543D02*
X0184916Y0062543D01*
X0185147Y0060945D02*
X0252657Y0060945D01*
X0251033Y0059346D02*
X0185010Y0059346D01*
X0184347Y0057748D02*
X0249409Y0057748D01*
X0247784Y0056149D02*
X0184303Y0056149D01*
X0184965Y0054551D02*
X0246160Y0054551D01*
X0244536Y0052952D02*
X0185147Y0052952D01*
X0184960Y0051354D02*
X0242912Y0051354D01*
X0241287Y0049755D02*
X0184298Y0049755D01*
X0184352Y0048157D02*
X0239663Y0048157D01*
X0238038Y0046558D02*
X0185014Y0046558D01*
X0185147Y0044960D02*
X0236414Y0044960D01*
X0234790Y0043361D02*
X0184911Y0043361D01*
X0184229Y0041763D02*
X0233166Y0041763D01*
X0231541Y0040164D02*
X0184401Y0040164D01*
X0185063Y0038566D02*
X0229917Y0038566D01*
X0228293Y0036967D02*
X0185147Y0036967D01*
X0184862Y0035369D02*
X0226668Y0035369D01*
X0225044Y0033770D02*
X0184110Y0033770D01*
X0184450Y0032172D02*
X0223420Y0032172D01*
X0221795Y0030573D02*
X0185112Y0030573D01*
X0185147Y0028975D02*
X0220171Y0028975D01*
X0218547Y0027376D02*
X0184813Y0027376D01*
X0183992Y0025778D02*
X0216922Y0025778D01*
X0215298Y0024179D02*
X0184499Y0024179D01*
X0185147Y0022581D02*
X0213674Y0022581D01*
X0212049Y0020982D02*
X0185147Y0020982D01*
X0184764Y0019384D02*
X0210425Y0019384D01*
X0208801Y0017785D02*
X0183873Y0017785D01*
X0183144Y0016187D02*
X0207176Y0016187D01*
X0205552Y0014588D02*
X0183846Y0014588D01*
X0183909Y0012990D02*
X0203928Y0012990D01*
X0202303Y0011391D02*
X0183390Y0011391D01*
X0175303Y0011391D02*
X0159613Y0011391D01*
X0157908Y0012990D02*
X0174784Y0012990D01*
X0174848Y0014588D02*
X0156203Y0014588D01*
X0154498Y0016187D02*
X0175549Y0016187D01*
X0174821Y0017785D02*
X0152792Y0017785D01*
X0151087Y0019384D02*
X0173930Y0019384D01*
X0173547Y0020982D02*
X0149382Y0020982D01*
X0148504Y0022581D02*
X0173547Y0022581D01*
X0174195Y0024179D02*
X0148071Y0024179D01*
X0147302Y0025778D02*
X0174702Y0025778D01*
X0173881Y0027376D02*
X0146856Y0027376D01*
X0147886Y0028975D02*
X0173547Y0028975D01*
X0173582Y0030573D02*
X0148504Y0030573D01*
X0148504Y0032172D02*
X0174244Y0032172D01*
X0174584Y0033770D02*
X0148240Y0033770D01*
X0147578Y0035369D02*
X0173831Y0035369D01*
X0173547Y0036967D02*
X0146447Y0036967D01*
X0147717Y0038566D02*
X0173631Y0038566D01*
X0174293Y0040164D02*
X0148379Y0040164D01*
X0148504Y0041763D02*
X0174465Y0041763D01*
X0173782Y0043361D02*
X0148410Y0043361D01*
X0147748Y0044960D02*
X0173547Y0044960D01*
X0173680Y0046558D02*
X0146521Y0046558D01*
X0147547Y0048157D02*
X0174342Y0048157D01*
X0174395Y0049755D02*
X0148209Y0049755D01*
X0148504Y0051354D02*
X0173733Y0051354D01*
X0173547Y0052952D02*
X0148504Y0052952D01*
X0147917Y0054551D02*
X0173729Y0054551D01*
X0174391Y0056149D02*
X0146930Y0056149D01*
X0147227Y0057748D02*
X0174346Y0057748D01*
X0173684Y0059346D02*
X0148040Y0059346D01*
X0148504Y0060945D02*
X0173547Y0060945D01*
X0173778Y0062543D02*
X0148504Y0062543D01*
X0148086Y0064142D02*
X0174455Y0064142D01*
X0174297Y0065740D02*
X0147339Y0065740D01*
X0146819Y0067339D02*
X0173635Y0067339D01*
X0173547Y0068937D02*
X0147871Y0068937D01*
X0148504Y0070536D02*
X0173827Y0070536D01*
X0174573Y0072134D02*
X0148504Y0072134D01*
X0148256Y0073733D02*
X0174248Y0073733D01*
X0173586Y0075332D02*
X0147594Y0075332D01*
X0146410Y0076930D02*
X0173547Y0076930D01*
X0173876Y0078529D02*
X0147701Y0078529D01*
X0148363Y0080127D02*
X0173932Y0080127D01*
X0173547Y0081726D02*
X0148504Y0081726D01*
X0148425Y0083324D02*
X0173547Y0083324D01*
X0173547Y0084923D02*
X0147763Y0084923D01*
X0146558Y0086521D02*
X0173547Y0086521D01*
X0173658Y0088120D02*
X0159170Y0088120D01*
X0160938Y0089718D02*
X0174769Y0089718D01*
X0175147Y0091317D02*
X0162536Y0091317D01*
X0164135Y0092915D02*
X0175147Y0092915D01*
X0175147Y0094514D02*
X0165733Y0094514D01*
X0167332Y0096112D02*
X0175596Y0096112D01*
X0176925Y0097711D02*
X0168930Y0097711D01*
X0170529Y0099309D02*
X0178523Y0099309D01*
X0180122Y0100908D02*
X0172127Y0100908D01*
X0173726Y0102506D02*
X0181720Y0102506D01*
X0183319Y0104105D02*
X0175324Y0104105D01*
X0176923Y0105703D02*
X0184917Y0105703D01*
X0186516Y0107302D02*
X0178521Y0107302D01*
X0180120Y0108900D02*
X0188115Y0108900D01*
X0189713Y0110499D02*
X0181718Y0110499D01*
X0183317Y0112097D02*
X0191312Y0112097D01*
X0192910Y0113696D02*
X0184915Y0113696D01*
X0186514Y0115294D02*
X0194509Y0115294D01*
X0196107Y0116893D02*
X0188112Y0116893D01*
X0189711Y0118491D02*
X0197706Y0118491D01*
X0199304Y0120090D02*
X0191309Y0120090D01*
X0192908Y0121688D02*
X0200903Y0121688D01*
X0201393Y0122179D02*
X0201393Y0122179D01*
X0202501Y0123287D02*
X0194506Y0123287D01*
X0196105Y0124885D02*
X0214100Y0124885D01*
X0215698Y0126484D02*
X0197703Y0126484D01*
X0199302Y0128082D02*
X0217297Y0128082D01*
X0218895Y0129681D02*
X0200901Y0129681D01*
X0202499Y0131279D02*
X0220494Y0131279D01*
X0222092Y0132878D02*
X0204098Y0132878D01*
X0205696Y0134476D02*
X0218868Y0134476D01*
X0217746Y0144047D02*
X0204292Y0144047D01*
X0202748Y0143408D01*
X0201567Y0142226D01*
X0155340Y0096000D01*
X0147080Y0096000D01*
X0146280Y0096800D01*
X0147484Y0098005D01*
X0148504Y0100467D01*
X0148504Y0103133D01*
X0147484Y0105595D01*
X0147363Y0105716D01*
X0148048Y0106401D01*
X0148504Y0107503D01*
X0148504Y0116097D01*
X0148048Y0117199D01*
X0147204Y0118043D01*
X0146101Y0118500D01*
X0137508Y0118500D01*
X0136405Y0118043D01*
X0135662Y0117300D01*
X0132004Y0117300D01*
X0132004Y0112000D01*
X0131604Y0112000D01*
X0131604Y0111600D01*
X0126304Y0111600D01*
X0126304Y0107962D01*
X0115898Y0107962D01*
X0108183Y0115677D01*
X0108183Y0126549D01*
X0109383Y0127749D01*
X0111002Y0126130D01*
X0113196Y0125221D01*
X0115570Y0125221D01*
X0117764Y0126130D01*
X0119383Y0127749D01*
X0121002Y0126130D01*
X0123196Y0125221D01*
X0125570Y0125221D01*
X0127764Y0126130D01*
X0129383Y0127749D01*
X0131002Y0126130D01*
X0133196Y0125221D01*
X0135570Y0125221D01*
X0137764Y0126130D01*
X0139443Y0127809D01*
X0140352Y0130003D01*
X0140352Y0132377D01*
X0139443Y0134571D01*
X0138916Y0135098D01*
X0140519Y0134434D01*
X0142893Y0134434D01*
X0145087Y0135343D01*
X0146766Y0137021D01*
X0147674Y0139215D01*
X0147674Y0141590D01*
X0147422Y0142200D01*
X0171715Y0142200D01*
X0172198Y0142000D01*
X0173710Y0142000D01*
X0175106Y0142579D01*
X0184323Y0151795D01*
X0217580Y0151795D01*
X0217852Y0151140D01*
X0218696Y0150296D01*
X0219798Y0149839D01*
X0225322Y0149839D01*
X0226234Y0150217D01*
X0226234Y0145225D01*
X0225322Y0145603D01*
X0219798Y0145603D01*
X0218696Y0145146D01*
X0217852Y0144303D01*
X0217746Y0144047D01*
X0217754Y0144068D02*
X0176595Y0144068D01*
X0178194Y0145666D02*
X0226234Y0145666D01*
X0226234Y0147265D02*
X0179792Y0147265D01*
X0181391Y0148863D02*
X0226234Y0148863D01*
X0222560Y0155595D02*
X0182749Y0155595D01*
X0172954Y0145800D01*
X0174842Y0142469D02*
X0201809Y0142469D01*
X0200211Y0140870D02*
X0147674Y0140870D01*
X0147674Y0139272D02*
X0198612Y0139272D01*
X0197014Y0137673D02*
X0147036Y0137673D01*
X0145819Y0136075D02*
X0195415Y0136075D01*
X0193817Y0134476D02*
X0142996Y0134476D01*
X0140416Y0134476D02*
X0139482Y0134476D01*
X0140144Y0132878D02*
X0192218Y0132878D01*
X0190620Y0131279D02*
X0140352Y0131279D01*
X0140218Y0129681D02*
X0189021Y0129681D01*
X0187423Y0128082D02*
X0139556Y0128082D01*
X0138118Y0126484D02*
X0185824Y0126484D01*
X0184226Y0124885D02*
X0108183Y0124885D01*
X0108183Y0123287D02*
X0182627Y0123287D01*
X0181029Y0121688D02*
X0108183Y0121688D01*
X0108183Y0120090D02*
X0179430Y0120090D01*
X0177832Y0118491D02*
X0146122Y0118491D01*
X0148175Y0116893D02*
X0176233Y0116893D01*
X0174635Y0115294D02*
X0148504Y0115294D01*
X0148504Y0113696D02*
X0173036Y0113696D01*
X0171438Y0112097D02*
X0148504Y0112097D01*
X0148504Y0110499D02*
X0169839Y0110499D01*
X0168240Y0108900D02*
X0148504Y0108900D01*
X0148421Y0107302D02*
X0166642Y0107302D01*
X0165043Y0105703D02*
X0147376Y0105703D01*
X0148102Y0104105D02*
X0163445Y0104105D01*
X0161846Y0102506D02*
X0148504Y0102506D01*
X0148504Y0100908D02*
X0160248Y0100908D01*
X0158649Y0099309D02*
X0148025Y0099309D01*
X0147190Y0097711D02*
X0157051Y0097711D01*
X0155452Y0096112D02*
X0146967Y0096112D01*
X0131804Y0101800D02*
X0129442Y0104162D01*
X0114324Y0104162D01*
X0104383Y0114103D01*
X0104383Y0131190D01*
X0100828Y0136075D02*
X0097939Y0136075D01*
X0094383Y0131190D02*
X0094383Y0104418D01*
X0102513Y0096682D01*
X0099279Y0094514D02*
X0079754Y0094514D01*
X0079754Y0096112D02*
X0097599Y0096112D01*
X0095919Y0097711D02*
X0079754Y0097711D01*
X0079754Y0099309D02*
X0094240Y0099309D01*
X0092560Y0100908D02*
X0079754Y0100908D01*
X0079754Y0102506D02*
X0091062Y0102506D01*
X0090583Y0104105D02*
X0079754Y0104105D01*
X0079754Y0105703D02*
X0090583Y0105703D01*
X0090583Y0107302D02*
X0079754Y0107302D01*
X0079754Y0108900D02*
X0090583Y0108900D01*
X0090583Y0110499D02*
X0079754Y0110499D01*
X0079754Y0112097D02*
X0090583Y0112097D01*
X0090583Y0113696D02*
X0079754Y0113696D01*
X0079754Y0115294D02*
X0090583Y0115294D01*
X0090583Y0116893D02*
X0079754Y0116893D01*
X0079754Y0118491D02*
X0090583Y0118491D01*
X0090583Y0120090D02*
X0079754Y0120090D01*
X0079754Y0121688D02*
X0090583Y0121688D01*
X0090583Y0123287D02*
X0079754Y0123287D01*
X0079754Y0124885D02*
X0090583Y0124885D01*
X0090583Y0126484D02*
X0079754Y0126484D01*
X0079754Y0128082D02*
X0089210Y0128082D01*
X0088548Y0129681D02*
X0079754Y0129681D01*
X0079754Y0131279D02*
X0088415Y0131279D01*
X0088622Y0132878D02*
X0079754Y0132878D01*
X0079754Y0134476D02*
X0089284Y0134476D01*
X0090828Y0136075D02*
X0079754Y0136075D01*
X0079754Y0137673D02*
X0110583Y0137673D01*
X0110583Y0136075D02*
X0107939Y0136075D01*
X0110583Y0139272D02*
X0079754Y0139272D01*
X0079754Y0140870D02*
X0110583Y0140870D01*
X0110013Y0142469D02*
X0079754Y0142469D01*
X0079754Y0144068D02*
X0108415Y0144068D01*
X0106816Y0145666D02*
X0079754Y0145666D01*
X0079754Y0147265D02*
X0105218Y0147265D01*
X0103619Y0148863D02*
X0079754Y0148863D01*
X0079754Y0150462D02*
X0102021Y0150462D01*
X0100422Y0152060D02*
X0079754Y0152060D01*
X0079754Y0153659D02*
X0098824Y0153659D01*
X0097225Y0155257D02*
X0079754Y0155257D01*
X0079754Y0156856D02*
X0095627Y0156856D01*
X0090315Y0158454D02*
X0079754Y0158454D01*
X0079754Y0160053D02*
X0089050Y0160053D01*
X0088883Y0161651D02*
X0079754Y0161651D01*
X0079754Y0163250D02*
X0088883Y0163250D01*
X0088883Y0164848D02*
X0079754Y0164848D01*
X0079754Y0166447D02*
X0089077Y0166447D01*
X0089001Y0168045D02*
X0079754Y0168045D01*
X0079754Y0169644D02*
X0088883Y0169644D01*
X0088883Y0171242D02*
X0079754Y0171242D01*
X0079754Y0172841D02*
X0088883Y0172841D01*
X0089126Y0174439D02*
X0079754Y0174439D01*
X0079754Y0176038D02*
X0090183Y0176038D01*
X0090183Y0177636D02*
X0079754Y0177636D01*
X0079754Y0179235D02*
X0090183Y0179235D01*
X0090183Y0180833D02*
X0079754Y0180833D01*
X0079754Y0182432D02*
X0090183Y0182432D01*
X0090183Y0184030D02*
X0079754Y0184030D01*
X0079754Y0185629D02*
X0090183Y0185629D01*
X0090183Y0187227D02*
X0079754Y0187227D01*
X0079754Y0188826D02*
X0090183Y0188826D01*
X0090183Y0190424D02*
X0079754Y0190424D01*
X0079754Y0192023D02*
X0090183Y0192023D01*
X0090183Y0193621D02*
X0079754Y0193621D01*
X0079754Y0195220D02*
X0090183Y0195220D01*
X0090183Y0196818D02*
X0079754Y0196818D01*
X0079754Y0198417D02*
X0089071Y0198417D01*
X0088415Y0200015D02*
X0079754Y0200015D01*
X0079754Y0201614D02*
X0088415Y0201614D01*
X0088761Y0203212D02*
X0079754Y0203212D01*
X0079754Y0204811D02*
X0089564Y0204811D01*
X0091388Y0206409D02*
X0079754Y0206409D01*
X0079754Y0208008D02*
X0095262Y0208008D01*
X0096860Y0209606D02*
X0079754Y0209606D01*
X0079754Y0211205D02*
X0098459Y0211205D01*
X0100057Y0212803D02*
X0079754Y0212803D01*
X0098583Y0196818D02*
X0100314Y0196818D01*
X0108452Y0196818D02*
X0112459Y0196818D01*
X0114199Y0196818D02*
X0114567Y0196818D01*
X0114567Y0198417D02*
X0114199Y0198417D01*
X0114199Y0200015D02*
X0114567Y0200015D01*
X0114567Y0201374D02*
X0114199Y0201374D01*
X0114199Y0205958D01*
X0114008Y0205958D01*
X0113266Y0205841D01*
X0112553Y0205609D01*
X0111884Y0205268D01*
X0111277Y0204827D01*
X0110746Y0204296D01*
X0110305Y0203689D01*
X0110031Y0203151D01*
X0109443Y0204571D01*
X0107764Y0206250D01*
X0106080Y0206947D01*
X0109331Y0210198D01*
X0120458Y0210198D01*
X0123499Y0207158D01*
X0123196Y0207158D01*
X0121002Y0206250D01*
X0119323Y0204571D01*
X0118735Y0203151D01*
X0118461Y0203689D01*
X0118020Y0204296D01*
X0117490Y0204827D01*
X0116882Y0205268D01*
X0116214Y0205609D01*
X0115500Y0205841D01*
X0114758Y0205958D01*
X0114567Y0205958D01*
X0114567Y0201374D01*
X0114567Y0201614D02*
X0114199Y0201614D01*
X0114199Y0203212D02*
X0114567Y0203212D01*
X0114567Y0204811D02*
X0114199Y0204811D01*
X0111261Y0204811D02*
X0109203Y0204811D01*
X0110005Y0203212D02*
X0110062Y0203212D01*
X0107378Y0206409D02*
X0121388Y0206409D01*
X0122649Y0208008D02*
X0107141Y0208008D01*
X0108739Y0209606D02*
X0121050Y0209606D01*
X0119564Y0204811D02*
X0117506Y0204811D01*
X0118704Y0203212D02*
X0118761Y0203212D01*
X0119071Y0198417D02*
X0118263Y0198417D01*
X0116307Y0196818D02*
X0120314Y0196818D01*
X0128452Y0196818D02*
X0130314Y0196818D01*
X0110503Y0198417D02*
X0109695Y0198417D01*
X0094639Y0163217D02*
X0114383Y0143473D01*
X0114383Y0131190D01*
X0110648Y0126484D02*
X0108183Y0126484D01*
X0118118Y0126484D02*
X0120648Y0126484D01*
X0128118Y0126484D02*
X0130648Y0126484D01*
X0130828Y0136075D02*
X0127939Y0136075D01*
X0128328Y0140870D02*
X0135737Y0140870D01*
X0135737Y0139272D02*
X0118183Y0139272D01*
X0118183Y0140870D02*
X0121579Y0140870D01*
X0120006Y0142469D02*
X0118183Y0142469D01*
X0118183Y0144068D02*
X0119776Y0144068D01*
X0119776Y0145666D02*
X0117564Y0145666D01*
X0115966Y0147265D02*
X0119776Y0147265D01*
X0119895Y0148863D02*
X0114367Y0148863D01*
X0112769Y0150462D02*
X0121017Y0150462D01*
X0128891Y0150462D02*
X0135737Y0150462D01*
X0135932Y0152060D02*
X0111170Y0152060D01*
X0109572Y0153659D02*
X0136594Y0153659D01*
X0136376Y0137673D02*
X0118183Y0137673D01*
X0118183Y0136075D02*
X0120828Y0136075D01*
X0127410Y0117177D02*
X0126999Y0116940D01*
X0126664Y0116605D01*
X0126427Y0116195D01*
X0126304Y0115737D01*
X0126304Y0112000D01*
X0131604Y0112000D01*
X0131604Y0117300D01*
X0127867Y0117300D01*
X0127410Y0117177D01*
X0126952Y0116893D02*
X0108183Y0116893D01*
X0108183Y0118491D02*
X0137487Y0118491D01*
X0132004Y0116893D02*
X0131604Y0116893D01*
X0131604Y0115294D02*
X0132004Y0115294D01*
X0132004Y0113696D02*
X0131604Y0113696D01*
X0131604Y0112097D02*
X0132004Y0112097D01*
X0126304Y0112097D02*
X0111763Y0112097D01*
X0113361Y0110499D02*
X0126304Y0110499D01*
X0126304Y0108900D02*
X0114960Y0108900D01*
X0110164Y0113696D02*
X0126304Y0113696D01*
X0126304Y0115294D02*
X0108566Y0115294D01*
X0103393Y0092915D02*
X0125104Y0092915D01*
X0125104Y0091317D02*
X0079754Y0091317D01*
X0079754Y0092915D02*
X0101720Y0092915D01*
X0079754Y0089718D02*
X0125415Y0089718D01*
X0126077Y0088120D02*
X0079754Y0088120D01*
X0079754Y0086521D02*
X0127050Y0086521D01*
X0125846Y0084923D02*
X0079754Y0084923D01*
X0079754Y0083324D02*
X0125184Y0083324D01*
X0125104Y0081726D02*
X0079754Y0081726D01*
X0079754Y0080127D02*
X0125245Y0080127D01*
X0125907Y0078529D02*
X0079754Y0078529D01*
X0079754Y0076930D02*
X0127199Y0076930D01*
X0126015Y0075332D02*
X0079754Y0075332D01*
X0079754Y0073733D02*
X0125353Y0073733D01*
X0125104Y0072134D02*
X0079754Y0072134D01*
X0079754Y0070536D02*
X0125104Y0070536D01*
X0125738Y0068937D02*
X0079754Y0068937D01*
X0079754Y0067339D02*
X0126790Y0067339D01*
X0126270Y0065740D02*
X0079754Y0065740D01*
X0079754Y0064142D02*
X0125522Y0064142D01*
X0125104Y0062543D02*
X0079754Y0062543D01*
X0079754Y0060945D02*
X0125104Y0060945D01*
X0125569Y0059346D02*
X0079754Y0059346D01*
X0079754Y0057748D02*
X0126381Y0057748D01*
X0126678Y0056149D02*
X0079754Y0056149D01*
X0079754Y0054551D02*
X0125692Y0054551D01*
X0125104Y0052952D02*
X0079754Y0052952D01*
X0079754Y0051354D02*
X0125104Y0051354D01*
X0125399Y0049755D02*
X0079754Y0049755D01*
X0079754Y0048157D02*
X0126061Y0048157D01*
X0127087Y0046558D02*
X0079754Y0046558D01*
X0079754Y0044960D02*
X0125861Y0044960D01*
X0125199Y0043361D02*
X0079754Y0043361D01*
X0079754Y0041763D02*
X0125104Y0041763D01*
X0125230Y0040164D02*
X0079754Y0040164D01*
X0079754Y0038566D02*
X0125892Y0038566D01*
X0127162Y0036967D02*
X0079754Y0036967D01*
X0079754Y0035369D02*
X0126031Y0035369D01*
X0125368Y0033770D02*
X0079754Y0033770D01*
X0079754Y0032172D02*
X0125104Y0032172D01*
X0125104Y0030573D02*
X0079754Y0030573D01*
X0079754Y0028975D02*
X0086660Y0028975D01*
X0083558Y0027376D02*
X0079754Y0027376D01*
X0079754Y0025778D02*
X0081843Y0025778D01*
X0080578Y0024179D02*
X0079754Y0024179D01*
X0094744Y0028975D02*
X0125723Y0028975D01*
X0126753Y0027376D02*
X0097846Y0027376D01*
X0099561Y0025778D02*
X0126307Y0025778D01*
X0125538Y0024179D02*
X0100826Y0024179D01*
X0101749Y0022581D02*
X0125104Y0022581D01*
X0125104Y0020982D02*
X0102292Y0020982D01*
X0102720Y0019384D02*
X0125553Y0019384D01*
X0126344Y0017785D02*
X0102785Y0017785D01*
X0102785Y0016187D02*
X0127942Y0016187D01*
X0135666Y0016187D02*
X0137942Y0016187D01*
X0145091Y0014588D02*
X0102419Y0014588D01*
X0101990Y0012990D02*
X0146796Y0012990D01*
X0148501Y0011391D02*
X0101100Y0011391D01*
X0100035Y0009793D02*
X0150206Y0009793D01*
X0151911Y0008194D02*
X0098437Y0008194D01*
X0141804Y0021800D02*
X0142954Y0021800D01*
X0158954Y0006800D01*
X0203056Y0006800D01*
X0265961Y0068706D01*
X0260960Y0057748D02*
X0260244Y0057748D01*
X0261005Y0056149D02*
X0258620Y0056149D01*
X0256995Y0054551D02*
X0260343Y0054551D01*
X0260161Y0052952D02*
X0255371Y0052952D01*
X0253747Y0051354D02*
X0260347Y0051354D01*
X0261010Y0049755D02*
X0252122Y0049755D01*
X0250498Y0048157D02*
X0260956Y0048157D01*
X0260294Y0046558D02*
X0248874Y0046558D01*
X0247249Y0044960D02*
X0260161Y0044960D01*
X0260396Y0043361D02*
X0245625Y0043361D01*
X0244001Y0041763D02*
X0261079Y0041763D01*
X0260907Y0040164D02*
X0242376Y0040164D01*
X0240752Y0038566D02*
X0260245Y0038566D01*
X0260161Y0036967D02*
X0239128Y0036967D01*
X0237503Y0035369D02*
X0260446Y0035369D01*
X0261198Y0033770D02*
X0235879Y0033770D01*
X0234255Y0032172D02*
X0260858Y0032172D01*
X0260196Y0030573D02*
X0232630Y0030573D01*
X0231006Y0028975D02*
X0260161Y0028975D01*
X0260495Y0027376D02*
X0229382Y0027376D01*
X0227757Y0025778D02*
X0261316Y0025778D01*
X0260809Y0024179D02*
X0226133Y0024179D01*
X0224509Y0022581D02*
X0260161Y0022581D01*
X0260161Y0020982D02*
X0222884Y0020982D01*
X0221260Y0019384D02*
X0260544Y0019384D01*
X0261435Y0017785D02*
X0219636Y0017785D01*
X0218011Y0016187D02*
X0260760Y0016187D01*
X0260161Y0014588D02*
X0216387Y0014588D01*
X0214763Y0012990D02*
X0260161Y0012990D01*
X0260593Y0011391D02*
X0213138Y0011391D01*
X0211514Y0009793D02*
X0261553Y0009793D01*
X0263826Y0008194D02*
X0209890Y0008194D01*
X0268096Y0008194D02*
X0291532Y0008194D01*
X0289934Y0009793D02*
X0270369Y0009793D01*
X0271329Y0011391D02*
X0288335Y0011391D01*
X0286737Y0012990D02*
X0271761Y0012990D01*
X0271761Y0014588D02*
X0285138Y0014588D01*
X0284003Y0016187D02*
X0271162Y0016187D01*
X0270487Y0017785D02*
X0283752Y0017785D01*
X0283752Y0019384D02*
X0271378Y0019384D01*
X0271761Y0020982D02*
X0283752Y0020982D01*
X0283752Y0022581D02*
X0271761Y0022581D01*
X0271113Y0024179D02*
X0283752Y0024179D01*
X0283752Y0025778D02*
X0270606Y0025778D01*
X0271427Y0027376D02*
X0284249Y0027376D01*
X0285731Y0028975D02*
X0271761Y0028975D01*
X0271726Y0030573D02*
X0287330Y0030573D01*
X0288928Y0032172D02*
X0271064Y0032172D01*
X0270724Y0033770D02*
X0295368Y0033770D01*
X0296031Y0035369D02*
X0271476Y0035369D01*
X0311804Y0071800D02*
X0312670Y0072666D01*
X0338733Y0072666D01*
X0350544Y0084477D01*
X0350544Y0131721D01*
X0341296Y0140969D01*
X0341233Y0140969D01*
X0350544Y0150280D01*
X0350544Y0171091D01*
X0346744Y0168952D02*
X0346744Y0153261D01*
X0346293Y0154350D01*
X0344614Y0156029D01*
X0343195Y0156617D01*
X0343733Y0156891D01*
X0344340Y0157332D01*
X0344871Y0157863D01*
X0345312Y0158470D01*
X0345653Y0159139D01*
X0345885Y0159853D01*
X0346002Y0160594D01*
X0346002Y0160785D01*
X0341418Y0160785D01*
X0341418Y0161154D01*
X0341049Y0161154D01*
X0341049Y0165738D01*
X0340858Y0165738D01*
X0340117Y0165620D01*
X0339403Y0165388D01*
X0338734Y0165048D01*
X0338127Y0164606D01*
X0337596Y0164076D01*
X0337155Y0163469D01*
X0336814Y0162800D01*
X0336582Y0162086D01*
X0336465Y0161345D01*
X0336465Y0161154D01*
X0341049Y0161154D01*
X0341049Y0160785D01*
X0336465Y0160785D01*
X0336465Y0160594D01*
X0336582Y0159853D01*
X0336814Y0159139D01*
X0337155Y0158470D01*
X0337596Y0157863D01*
X0338127Y0157332D01*
X0338734Y0156891D01*
X0339272Y0156617D01*
X0337853Y0156029D01*
X0336174Y0154350D01*
X0335265Y0152156D01*
X0335265Y0149782D01*
X0336174Y0147588D01*
X0337793Y0145969D01*
X0336174Y0144350D01*
X0335265Y0142156D01*
X0335265Y0139782D01*
X0336174Y0137588D01*
X0337793Y0135969D01*
X0336993Y0135169D01*
X0330138Y0135169D01*
X0328595Y0134530D01*
X0313379Y0119314D01*
X0313333Y0119361D01*
X0309333Y0123361D01*
X0307789Y0124000D01*
X0248694Y0124000D01*
X0235600Y0137094D01*
X0235600Y0143200D01*
X0235143Y0144303D01*
X0234634Y0144811D01*
X0234634Y0150631D01*
X0235143Y0151140D01*
X0235600Y0152243D01*
X0235600Y0158948D01*
X0235143Y0160051D01*
X0234634Y0160559D01*
X0234634Y0163155D01*
X0233995Y0164699D01*
X0232515Y0166179D01*
X0231333Y0167361D01*
X0230785Y0167587D01*
X0233196Y0167587D01*
X0234299Y0168044D01*
X0235143Y0168888D01*
X0235249Y0169143D01*
X0251333Y0169143D01*
X0252876Y0169783D01*
X0280694Y0197600D01*
X0318096Y0197600D01*
X0346744Y0168952D01*
X0346744Y0168045D02*
X0291492Y0168045D01*
X0291761Y0168695D02*
X0291761Y0171070D01*
X0290852Y0173264D01*
X0289233Y0174883D01*
X0290852Y0176502D01*
X0291761Y0178695D01*
X0291761Y0181070D01*
X0290852Y0183264D01*
X0289233Y0184883D01*
X0290852Y0186502D01*
X0291761Y0188695D01*
X0291761Y0191070D01*
X0290852Y0193264D01*
X0289173Y0194943D01*
X0286980Y0195851D01*
X0284605Y0195851D01*
X0282412Y0194943D01*
X0280733Y0193264D01*
X0279824Y0191070D01*
X0279824Y0188695D01*
X0280733Y0186502D01*
X0282352Y0184883D01*
X0280733Y0183264D01*
X0279824Y0181070D01*
X0279824Y0178695D01*
X0280733Y0176502D01*
X0282352Y0174883D01*
X0280733Y0173264D01*
X0279824Y0171070D01*
X0279824Y0168695D01*
X0280733Y0166502D01*
X0282352Y0164883D01*
X0280733Y0163264D01*
X0279824Y0161070D01*
X0279824Y0158695D01*
X0280733Y0156502D01*
X0282352Y0154883D01*
X0280733Y0153264D01*
X0279824Y0151070D01*
X0279824Y0148695D01*
X0280733Y0146502D01*
X0282412Y0144823D01*
X0284605Y0143914D01*
X0286980Y0143914D01*
X0289173Y0144823D01*
X0290852Y0146502D01*
X0291761Y0148695D01*
X0291761Y0151070D01*
X0290852Y0153264D01*
X0289233Y0154883D01*
X0290852Y0156502D01*
X0291761Y0158695D01*
X0291761Y0161070D01*
X0290852Y0163264D01*
X0289233Y0164883D01*
X0290852Y0166502D01*
X0291761Y0168695D01*
X0291761Y0169644D02*
X0346052Y0169644D01*
X0344454Y0171242D02*
X0291690Y0171242D01*
X0291028Y0172841D02*
X0342855Y0172841D01*
X0341257Y0174439D02*
X0289677Y0174439D01*
X0290388Y0176038D02*
X0339658Y0176038D01*
X0338060Y0177636D02*
X0291322Y0177636D01*
X0291761Y0179235D02*
X0336461Y0179235D01*
X0334863Y0180833D02*
X0291761Y0180833D01*
X0291197Y0182432D02*
X0333264Y0182432D01*
X0331666Y0184030D02*
X0290086Y0184030D01*
X0289979Y0185629D02*
X0330067Y0185629D01*
X0328469Y0187227D02*
X0291153Y0187227D01*
X0291761Y0188826D02*
X0326870Y0188826D01*
X0325272Y0190424D02*
X0291761Y0190424D01*
X0291366Y0192023D02*
X0323673Y0192023D01*
X0322075Y0193621D02*
X0290495Y0193621D01*
X0288504Y0195220D02*
X0320476Y0195220D01*
X0318878Y0196818D02*
X0279912Y0196818D01*
X0278313Y0195220D02*
X0283081Y0195220D01*
X0281090Y0193621D02*
X0276715Y0193621D01*
X0275116Y0192023D02*
X0280219Y0192023D01*
X0279824Y0190424D02*
X0273518Y0190424D01*
X0271919Y0188826D02*
X0279824Y0188826D01*
X0280432Y0187227D02*
X0270321Y0187227D01*
X0268722Y0185629D02*
X0281606Y0185629D01*
X0281499Y0184030D02*
X0267124Y0184030D01*
X0265525Y0182432D02*
X0280388Y0182432D01*
X0279824Y0180833D02*
X0263927Y0180833D01*
X0262328Y0179235D02*
X0279824Y0179235D01*
X0280263Y0177636D02*
X0260730Y0177636D01*
X0259131Y0176038D02*
X0281197Y0176038D01*
X0281908Y0174439D02*
X0257533Y0174439D01*
X0255934Y0172841D02*
X0280558Y0172841D01*
X0279895Y0171242D02*
X0254336Y0171242D01*
X0252541Y0169644D02*
X0279824Y0169644D01*
X0280093Y0168045D02*
X0234300Y0168045D01*
X0232247Y0166447D02*
X0280788Y0166447D01*
X0282317Y0164848D02*
X0233845Y0164848D01*
X0234595Y0163250D02*
X0280727Y0163250D01*
X0280065Y0161651D02*
X0234634Y0161651D01*
X0235141Y0160053D02*
X0279824Y0160053D01*
X0279924Y0158454D02*
X0235600Y0158454D01*
X0235600Y0156856D02*
X0280586Y0156856D01*
X0281977Y0155257D02*
X0235600Y0155257D01*
X0235600Y0153659D02*
X0281128Y0153659D01*
X0280234Y0152060D02*
X0235524Y0152060D01*
X0234634Y0150462D02*
X0279824Y0150462D01*
X0279824Y0148863D02*
X0234634Y0148863D01*
X0234634Y0147265D02*
X0280417Y0147265D01*
X0281568Y0145666D02*
X0234634Y0145666D01*
X0235240Y0144068D02*
X0284235Y0144068D01*
X0287350Y0144068D02*
X0336057Y0144068D01*
X0335394Y0142469D02*
X0235600Y0142469D01*
X0235600Y0140870D02*
X0335265Y0140870D01*
X0335476Y0139272D02*
X0235600Y0139272D01*
X0235600Y0137673D02*
X0336138Y0137673D01*
X0337687Y0136075D02*
X0236619Y0136075D01*
X0238217Y0134476D02*
X0328541Y0134476D01*
X0326943Y0132878D02*
X0239816Y0132878D01*
X0241414Y0131279D02*
X0325344Y0131279D01*
X0323746Y0129681D02*
X0243013Y0129681D01*
X0244611Y0128082D02*
X0322147Y0128082D01*
X0320549Y0126484D02*
X0246210Y0126484D01*
X0247808Y0124885D02*
X0318950Y0124885D01*
X0317352Y0123287D02*
X0309407Y0123287D01*
X0311005Y0121688D02*
X0315753Y0121688D01*
X0314154Y0120090D02*
X0312604Y0120090D01*
X0295104Y0115294D02*
X0206388Y0115294D01*
X0204789Y0113696D02*
X0295104Y0113696D01*
X0295104Y0112097D02*
X0203191Y0112097D01*
X0201592Y0110499D02*
X0295104Y0110499D01*
X0295104Y0108900D02*
X0199994Y0108900D01*
X0198395Y0107302D02*
X0295188Y0107302D01*
X0296258Y0105703D02*
X0196797Y0105703D01*
X0195198Y0104105D02*
X0296806Y0104105D01*
X0296348Y0102506D02*
X0193600Y0102506D01*
X0208954Y0096800D02*
X0306804Y0096800D01*
X0311804Y0091800D01*
X0290017Y0145666D02*
X0337489Y0145666D01*
X0336497Y0147265D02*
X0291168Y0147265D01*
X0291761Y0148863D02*
X0335646Y0148863D01*
X0335265Y0150462D02*
X0291761Y0150462D01*
X0291351Y0152060D02*
X0335265Y0152060D01*
X0335887Y0153659D02*
X0290457Y0153659D01*
X0289608Y0155257D02*
X0337081Y0155257D01*
X0338803Y0156856D02*
X0290999Y0156856D01*
X0291661Y0158454D02*
X0337167Y0158454D01*
X0336551Y0160053D02*
X0291761Y0160053D01*
X0291520Y0161651D02*
X0336514Y0161651D01*
X0337044Y0163250D02*
X0290858Y0163250D01*
X0289268Y0164848D02*
X0338460Y0164848D01*
X0341049Y0164848D02*
X0341418Y0164848D01*
X0341418Y0165738D02*
X0341418Y0161154D01*
X0346002Y0161154D01*
X0346002Y0161345D01*
X0345885Y0162086D01*
X0345653Y0162800D01*
X0345312Y0163469D01*
X0344871Y0164076D01*
X0344340Y0164606D01*
X0343733Y0165048D01*
X0343064Y0165388D01*
X0342350Y0165620D01*
X0341609Y0165738D01*
X0341418Y0165738D01*
X0341418Y0163250D02*
X0341049Y0163250D01*
X0341049Y0161651D02*
X0341418Y0161651D01*
X0344007Y0164848D02*
X0346744Y0164848D01*
X0346744Y0163250D02*
X0345423Y0163250D01*
X0345953Y0161651D02*
X0346744Y0161651D01*
X0346744Y0160053D02*
X0345916Y0160053D01*
X0345300Y0158454D02*
X0346744Y0158454D01*
X0346744Y0156856D02*
X0343663Y0156856D01*
X0345386Y0155257D02*
X0346744Y0155257D01*
X0346744Y0153659D02*
X0346580Y0153659D01*
X0346744Y0166447D02*
X0290797Y0166447D01*
X0248851Y0177636D02*
X0235210Y0177636D01*
X0219565Y0163250D02*
X0174165Y0163250D01*
X0174827Y0161651D02*
X0221163Y0161651D01*
X0217854Y0160053D02*
X0175068Y0160053D01*
X0174968Y0158454D02*
X0180234Y0158454D01*
X0178636Y0156856D02*
X0174306Y0156856D01*
X0172575Y0164848D02*
X0218802Y0164848D01*
X0218754Y0166447D02*
X0174104Y0166447D01*
X0174799Y0168045D02*
X0218694Y0168045D01*
X0217539Y0169644D02*
X0175068Y0169644D01*
X0174997Y0171242D02*
X0217395Y0171242D01*
X0217395Y0172841D02*
X0174335Y0172841D01*
X0172984Y0174439D02*
X0217395Y0174439D01*
X0218530Y0150462D02*
X0182989Y0150462D01*
X0217986Y0116893D02*
X0243921Y0116893D01*
X0242323Y0118491D02*
X0219585Y0118491D01*
X0221183Y0120090D02*
X0240724Y0120090D01*
X0239126Y0121688D02*
X0222782Y0121688D01*
X0224380Y0123287D02*
X0237527Y0123287D01*
X0235929Y0124885D02*
X0225979Y0124885D01*
X0227577Y0126484D02*
X0234330Y0126484D01*
X0232732Y0128082D02*
X0229176Y0128082D01*
X0230775Y0129681D02*
X0231133Y0129681D01*
X0220470Y0220796D02*
X0218651Y0220796D01*
X0219359Y0228789D02*
X0219762Y0228789D01*
X0221616Y0230387D02*
X0217505Y0230387D01*
X0353165Y0214402D02*
X0361493Y0214402D01*
X0361493Y0216001D02*
X0357029Y0216001D01*
X0359023Y0217599D02*
X0361493Y0217599D01*
X0361493Y0219198D02*
X0360449Y0219198D01*
X0361372Y0220796D02*
X0361493Y0220796D01*
D19*
X0172954Y0145800D02*
X0124954Y0145800D01*
X0137316Y0096682D02*
X0102513Y0096682D01*
D20*
X0124954Y0145800D03*
M02*
